%TF.GenerationSoftware,KiCad,Pcbnew,10.0.0*%
%TF.CreationDate,2026-10-01T14:30:42+10:00*%
%TF.ProjectId,keeby,6b656562-792e-46b6-9963-61645f706362,rev?*%
%TF.SameCoordinates,Original*%
%TF.FileFunction,Copper,L1,Top*%
%TF.FilePolarity,Positive*%
%FSLAX46Y46*%
G04 Gerber Fmt 4.6, Leading zero omitted, Abs format (unit mm)*
G04 Created by KiCad (PCBNEW 10.0.0) date 2026-10-01 14:30:42*
%MOMM*%
%LPD*%
G01*
G04 APERTURE LIST*
G04 Aperture macros list*
%AMRoundRect*
0 Rectangle with rounded corners*
0 $1 Rounding radius*
0 $2 $3 $4 $5 $6 $7 $8 $9 X,Y pos of 4 corners*
0 Add a 4 corners polygon primitive as box body*
4,1,4,$2,$3,$4,$5,$6,$7,$8,$9,$2,$3,0*
0 Add four circle primitives for the rounded corners*
1,1,$1+$1,$2,$3*
1,1,$1+$1,$4,$5*
1,1,$1+$1,$6,$7*
1,1,$1+$1,$8,$9*
0 Add four rect primitives between the rounded corners*
20,1,$1+$1,$2,$3,$4,$5,0*
20,1,$1+$1,$4,$5,$6,$7,0*
20,1,$1+$1,$6,$7,$8,$9,0*
20,1,$1+$1,$8,$9,$2,$3,0*%
G04 Aperture macros list end*
%TA.AperFunction,ComponentPad*%
%ADD10C,1.600000*%
%TD*%
%TA.AperFunction,ComponentPad*%
%ADD11RoundRect,0.250000X-0.550000X0.550000X-0.550000X-0.550000X0.550000X-0.550000X0.550000X0.550000X0*%
%TD*%
%TA.AperFunction,ComponentPad*%
%ADD12C,2.300000*%
%TD*%
%TA.AperFunction,SMDPad,CuDef*%
%ADD13RoundRect,0.262500X-2.112500X0.612500X-2.112500X-0.612500X2.112500X-0.612500X2.112500X0.612500X0*%
%TD*%
%TA.AperFunction,ComponentPad*%
%ADD14C,2.800000*%
%TD*%
%TA.AperFunction,ComponentPad*%
%ADD15C,2.000000*%
%TD*%
%TA.AperFunction,ComponentPad*%
%ADD16RoundRect,0.550000X1.150000X0.550000X-1.150000X0.550000X-1.150000X-0.550000X1.150000X-0.550000X0*%
%TD*%
%TA.AperFunction,ComponentPad*%
%ADD17RoundRect,0.500000X0.500000X0.500000X-0.500000X0.500000X-0.500000X-0.500000X0.500000X-0.500000X0*%
%TD*%
%TA.AperFunction,ComponentPad*%
%ADD18C,1.800000*%
%TD*%
%TA.AperFunction,ComponentPad*%
%ADD19RoundRect,0.450000X-0.450000X0.450000X-0.450000X-0.450000X0.450000X-0.450000X0.450000X0.450000X0*%
%TD*%
%TA.AperFunction,ComponentPad*%
%ADD20O,4.340000X1.800000*%
%TD*%
%TA.AperFunction,ComponentPad*%
%ADD21RoundRect,0.250000X0.550000X-0.550000X0.550000X0.550000X-0.550000X0.550000X-0.550000X-0.550000X0*%
%TD*%
%TA.AperFunction,SMDPad,CuDef*%
%ADD22RoundRect,0.090000X0.210000X0.535000X-0.210000X0.535000X-0.210000X-0.535000X0.210000X-0.535000X0*%
%TD*%
%TA.AperFunction,SMDPad,CuDef*%
%ADD23RoundRect,0.105000X-0.445000X0.245000X-0.445000X-0.245000X0.445000X-0.245000X0.445000X0.245000X0*%
%TD*%
%TA.AperFunction,Conductor*%
%ADD24C,0.200000*%
%TD*%
G04 APERTURE END LIST*
D10*
%TO.P,U2,28,GPA7_28*%
%TO.N,unconnected-(U2-GPA7-Pad28)*%
X283780000Y-49370000D03*
%TO.P,U2,27,GPA6_27*%
%TO.N,unconnected-(U2-GPA6-Pad27)*%
X281240000Y-49370000D03*
%TO.P,U2,26,GPA5_26*%
%TO.N,unconnected-(U2-GPA5-Pad26)*%
X278700000Y-49370000D03*
%TO.P,U2,25,GPA4_25*%
%TO.N,unconnected-(U2-GPA4-Pad25)*%
X276160000Y-49370000D03*
%TO.P,U2,24,GPA3_24*%
%TO.N,unconnected-(U2-GPA3-Pad24)*%
X273620000Y-49370000D03*
%TO.P,U2,23,GPA2_23*%
%TO.N,unconnected-(U2-GPA2-Pad23)*%
X271080000Y-49370000D03*
%TO.P,U2,22,GPA1_22*%
%TO.N,unconnected-(U2-GPA1-Pad22)*%
X268540000Y-49370000D03*
%TO.P,U2,21,GPA0_21*%
%TO.N,unconnected-(U2-GPA0-Pad21)*%
X266000000Y-49370000D03*
%TO.P,U2,20,INTA_20*%
%TO.N,unconnected-(U2-INTA-Pad20)*%
X263460000Y-49370000D03*
%TO.P,U2,19,INTB_19*%
%TO.N,unconnected-(U2-INTB-Pad19)*%
X260920000Y-49370000D03*
%TO.P,U2,18,~{RESET}_18*%
%TO.N,+3V3*%
X258380000Y-49370000D03*
%TO.P,U2,17,A2_17*%
%TO.N,unconnected-(U2-A2-Pad17)*%
X255840000Y-49370000D03*
%TO.P,U2,16,A1_16*%
%TO.N,/A1*%
X253300000Y-49370000D03*
%TO.P,U2,15,A0_15*%
%TO.N,/A0*%
X250760000Y-49370000D03*
%TO.P,U2,14,NC_14*%
%TO.N,unconnected-(U2-NC-Pad14)*%
X250760000Y-41750000D03*
%TO.P,U2,13,SDA_13*%
%TO.N,/SDA*%
X253300000Y-41750000D03*
%TO.P,U2,12,SCK_12*%
%TO.N,/SCL*%
X255840000Y-41750000D03*
%TO.P,U2,11,NC_11*%
%TO.N,unconnected-(U2-NC-Pad11)*%
X258380000Y-41750000D03*
%TO.P,U2,10,V_{SS}_10*%
%TO.N,GND*%
X260920000Y-41750000D03*
%TO.P,U2,9,V_{DD}_9*%
%TO.N,+3V3*%
X263460000Y-41750000D03*
%TO.P,U2,8,GPB7_8*%
%TO.N,unconnected-(U2-GPB7-Pad8)*%
X266000000Y-41750000D03*
%TO.P,U2,7,GPB6_7*%
%TO.N,unconnected-(U2-GPB6-Pad7)*%
X268540000Y-41750000D03*
%TO.P,U2,6,GPB5_6*%
%TO.N,unconnected-(U2-GPB5-Pad6)*%
X271080000Y-41750000D03*
%TO.P,U2,5,GPB4_5*%
%TO.N,unconnected-(U2-GPB4-Pad5)*%
X273620000Y-41750000D03*
%TO.P,U2,4,GPB3_4*%
%TO.N,unconnected-(U2-GPB3-Pad4)*%
X276160000Y-41750000D03*
%TO.P,U2,3,GPB2_3*%
%TO.N,Net-(U2-GPB2)*%
X278700000Y-41750000D03*
%TO.P,U2,2,GPB1_2*%
%TO.N,Net-(U2-GPB1)*%
X281240000Y-41750000D03*
D11*
%TO.P,U2,1,GPB0_1*%
%TO.N,Net-(U2-GPB0)*%
X283780000Y-41750000D03*
%TD*%
D12*
%TO.P,SW68,2,2_2*%
%TO.N,Net-(D68-A)*%
X326390000Y-136760000D03*
%TO.P,SW68,1,1_1*%
%TO.N,/COL15*%
X320040000Y-139300000D03*
%TD*%
%TO.P,SW67,2,2_2*%
%TO.N,Net-(D67-A)*%
X307340000Y-136760000D03*
%TO.P,SW67,1,1_1*%
%TO.N,/COL14*%
X300990000Y-139300000D03*
%TD*%
%TO.P,SW66,2,2_2*%
%TO.N,Net-(D66-A)*%
X288290000Y-136760000D03*
%TO.P,SW66,1,1_1*%
%TO.N,/COL13*%
X281940000Y-139300000D03*
%TD*%
%TO.P,SW65,2,2_2*%
%TO.N,Net-(D65-A)*%
X269240000Y-136760000D03*
%TO.P,SW65,1,1_1*%
%TO.N,/COL11*%
X262890000Y-139300000D03*
%TD*%
%TO.P,SW64,2,2_2*%
%TO.N,Net-(D64-A)*%
X250190000Y-136760000D03*
%TO.P,SW64,1,1_1*%
%TO.N,/COL10*%
X243840000Y-139300000D03*
%TD*%
%TO.P,SW63,2,2_2*%
%TO.N,Net-(D63-A)*%
X231140000Y-136760000D03*
%TO.P,SW63,1,1_1*%
%TO.N,/COL9*%
X224790000Y-139300000D03*
%TD*%
%TO.P,SW62,2,2_2*%
%TO.N,Net-(D62-A)*%
X162083750Y-136760000D03*
%TO.P,SW62,1,1_1*%
%TO.N,/COL6*%
X155733750Y-139300000D03*
%TD*%
%TO.P,SW61,2,2_2*%
%TO.N,Net-(D61-A)*%
X90646250Y-136760000D03*
%TO.P,SW61,1,1_1*%
%TO.N,/COL3*%
X84296250Y-139300000D03*
%TD*%
%TO.P,SW60,2,2_2*%
%TO.N,Net-(D60-A)*%
X66833750Y-136760000D03*
%TO.P,SW60,1,1_1*%
%TO.N,/COL2*%
X60483750Y-139300000D03*
%TD*%
%TO.P,SW59,2,2_2*%
%TO.N,Net-(D59-A)*%
X43021250Y-136760000D03*
%TO.P,SW59,1,1_1*%
%TO.N,/COL1*%
X36671250Y-139300000D03*
%TD*%
%TO.P,SW58,2,2_2*%
%TO.N,Net-(D58-A)*%
X326390000Y-117710000D03*
%TO.P,SW58,1,1_1*%
%TO.N,/COL15*%
X320040000Y-120250000D03*
%TD*%
%TO.P,SW57,2,2_2*%
%TO.N,Net-(D57-A)*%
X307340000Y-117710000D03*
%TO.P,SW57,1,1_1*%
%TO.N,/COL14*%
X300990000Y-120250000D03*
%TD*%
%TO.P,SW56,2,2_2*%
%TO.N,Net-(D56-A)*%
X281146250Y-117710000D03*
%TO.P,SW56,1,1_1*%
%TO.N,/COL13*%
X274796250Y-120250000D03*
%TD*%
%TO.P,SW55,2,2_2*%
%TO.N,Net-(D55-A)*%
X254952500Y-117710000D03*
%TO.P,SW55,1,1_1*%
%TO.N,/COL11*%
X248602500Y-120250000D03*
%TD*%
%TO.P,SW54,2,2_2*%
%TO.N,Net-(D46-A)*%
X235902500Y-117710000D03*
%TO.P,SW54,1,1_1*%
%TO.N,/COL10*%
X229552500Y-120250000D03*
%TD*%
%TO.P,SW53,2,2_2*%
%TO.N,Net-(D54-A)*%
X216852500Y-117710000D03*
%TO.P,SW53,1,1_1*%
%TO.N,/COL9*%
X210502500Y-120250000D03*
%TD*%
%TO.P,SW52,2,2_2*%
%TO.N,Net-(D45-A)*%
X197802500Y-117710000D03*
%TO.P,SW52,1,1_1*%
%TO.N,/COL8*%
X191452500Y-120250000D03*
%TD*%
%TO.P,SW51,2,2_2*%
%TO.N,Net-(D53-A)*%
X178752500Y-117710000D03*
%TO.P,SW51,1,1_1*%
%TO.N,/COL7*%
X172402500Y-120250000D03*
%TD*%
%TO.P,SW50,2,2_2*%
%TO.N,Net-(D52-A)*%
X159702500Y-117710000D03*
%TO.P,SW50,1,1_1*%
%TO.N,/COL6*%
X153352500Y-120250000D03*
%TD*%
%TO.P,SW49,2,2_2*%
%TO.N,Net-(D51-A)*%
X140652500Y-117710000D03*
%TO.P,SW49,1,1_1*%
%TO.N,/COL5*%
X134302500Y-120250000D03*
%TD*%
%TO.P,SW48,2,2_2*%
%TO.N,Net-(D50-A)*%
X121602500Y-117710000D03*
%TO.P,SW48,1,1_1*%
%TO.N,/COL4*%
X115252500Y-120250000D03*
%TD*%
%TO.P,SW47,2,2_2*%
%TO.N,Net-(D49-A)*%
X102552500Y-117710000D03*
%TO.P,SW47,1,1_1*%
%TO.N,/COL3*%
X96202500Y-120250000D03*
%TD*%
%TO.P,SW46,2,2_2*%
%TO.N,Net-(D48-A)*%
X83502500Y-117710000D03*
%TO.P,SW46,1,1_1*%
%TO.N,/COL2*%
X77152500Y-120250000D03*
%TD*%
%TO.P,SW45,2,2_2*%
%TO.N,Net-(D47-A)*%
X52546250Y-117710000D03*
%TO.P,SW45,1,1_1*%
%TO.N,/COL1*%
X46196250Y-120250000D03*
%TD*%
%TO.P,SW44,2,2_2*%
%TO.N,Net-(D44-A)*%
X326390000Y-98660000D03*
%TO.P,SW44,1,1_1*%
%TO.N,/COL15*%
X320040000Y-101200000D03*
%TD*%
%TO.P,SW43,2,2_2*%
%TO.N,Net-(D43-A)*%
X295433750Y-98660000D03*
%TO.P,SW43,1,1_1*%
%TO.N,/COL14*%
X289083750Y-101200000D03*
%TD*%
%TO.P,SW42,2,2_2*%
%TO.N,Net-(D42-A)*%
X264477500Y-98660000D03*
%TO.P,SW42,1,1_1*%
%TO.N,/COL12*%
X258127500Y-101200000D03*
%TD*%
%TO.P,SW41,2,2_2*%
%TO.N,Net-(D41-A)*%
X245427500Y-98660000D03*
%TO.P,SW41,1,1_1*%
%TO.N,/COL11*%
X239077500Y-101200000D03*
%TD*%
%TO.P,SW40,2,2_2*%
%TO.N,Net-(D40-A)*%
X226377500Y-98660000D03*
%TO.P,SW40,1,1_1*%
%TO.N,/COL10*%
X220027500Y-101200000D03*
%TD*%
%TO.P,SW39,2,2_2*%
%TO.N,Net-(D39-A)*%
X207327500Y-98660000D03*
%TO.P,SW39,1,1_1*%
%TO.N,/COL9*%
X200977500Y-101200000D03*
%TD*%
%TO.P,SW38,2,2_2*%
%TO.N,Net-(D38-A)*%
X188277500Y-98660000D03*
%TO.P,SW38,1,1_1*%
%TO.N,/COL8*%
X181927500Y-101200000D03*
%TD*%
%TO.P,SW37,2,2_2*%
%TO.N,Net-(D37-A)*%
X169227500Y-98660000D03*
%TO.P,SW37,1,1_1*%
%TO.N,/COL7*%
X162877500Y-101200000D03*
%TD*%
%TO.P,SW36,2,2_2*%
%TO.N,Net-(D36-A)*%
X150177500Y-98660000D03*
%TO.P,SW36,1,1_1*%
%TO.N,/COL6*%
X143827500Y-101200000D03*
%TD*%
%TO.P,SW35,2,2_2*%
%TO.N,Net-(D35-A)*%
X131127500Y-98660000D03*
%TO.P,SW35,1,1_1*%
%TO.N,/COL5*%
X124777500Y-101200000D03*
%TD*%
%TO.P,SW34,2,2_2*%
%TO.N,Net-(D34-A)*%
X112077500Y-98660000D03*
%TO.P,SW34,1,1_1*%
%TO.N,/COL4*%
X105727500Y-101200000D03*
%TD*%
%TO.P,SW33,2,2_2*%
%TO.N,Net-(D33-A)*%
X93027500Y-98660000D03*
%TO.P,SW33,1,1_1*%
%TO.N,/COL3*%
X86677500Y-101200000D03*
%TD*%
%TO.P,SW32,2,2_2*%
%TO.N,Net-(D32-A)*%
X73977500Y-98660000D03*
%TO.P,SW32,1,1_1*%
%TO.N,/COL2*%
X67627500Y-101200000D03*
%TD*%
%TO.P,SW31,2,2_2*%
%TO.N,Net-(D31-A)*%
X47783750Y-98660000D03*
%TO.P,SW31,1,1_1*%
%TO.N,/COL1*%
X41433750Y-101200000D03*
%TD*%
%TO.P,SW30,2,2_2*%
%TO.N,Net-(D30-A)*%
X326390000Y-79610000D03*
%TO.P,SW30,1,1_1*%
%TO.N,/COL15*%
X320040000Y-82150000D03*
%TD*%
%TO.P,SW29,2,2_2*%
%TO.N,Net-(D29-A)*%
X302577500Y-79610000D03*
%TO.P,SW29,1,1_1*%
%TO.N,/COL14*%
X296227500Y-82150000D03*
%TD*%
%TO.P,SW28,2,2_2*%
%TO.N,Net-(D28-A)*%
X278765000Y-79610000D03*
%TO.P,SW28,1,1_1*%
%TO.N,/COL13*%
X272415000Y-82150000D03*
%TD*%
%TO.P,SW27,2,2_2*%
%TO.N,Net-(D27-A)*%
X259715000Y-79610000D03*
%TO.P,SW27,1,1_1*%
%TO.N,/COL12*%
X253365000Y-82150000D03*
%TD*%
%TO.P,SW26,2,2_2*%
%TO.N,Net-(D26-A)*%
X240665000Y-79610000D03*
%TO.P,SW26,1,1_1*%
%TO.N,/COL11*%
X234315000Y-82150000D03*
%TD*%
%TO.P,SW25,2,2_2*%
%TO.N,Net-(D25-A)*%
X221615000Y-79610000D03*
%TO.P,SW25,1,1_1*%
%TO.N,/COL10*%
X215265000Y-82150000D03*
%TD*%
%TO.P,SW24,2,2_2*%
%TO.N,Net-(D24-A)*%
X202565000Y-79610000D03*
%TO.P,SW24,1,1_1*%
%TO.N,/COL9*%
X196215000Y-82150000D03*
%TD*%
%TO.P,SW23,2,2_2*%
%TO.N,Net-(D23-A)*%
X183515000Y-79610000D03*
%TO.P,SW23,1,1_1*%
%TO.N,/COL8*%
X177165000Y-82150000D03*
%TD*%
%TO.P,SW22,2,2_2*%
%TO.N,Net-(D22-A)*%
X164465000Y-79610000D03*
%TO.P,SW22,1,1_1*%
%TO.N,/COL7*%
X158115000Y-82150000D03*
%TD*%
%TO.P,SW21,2,2_2*%
%TO.N,Net-(D21-A)*%
X145415000Y-79610000D03*
%TO.P,SW21,1,1_1*%
%TO.N,/COL6*%
X139065000Y-82150000D03*
%TD*%
%TO.P,SW20,2,2_2*%
%TO.N,Net-(D20-A)*%
X126365000Y-79610000D03*
%TO.P,SW20,1,1_1*%
%TO.N,/COL5*%
X120015000Y-82150000D03*
%TD*%
%TO.P,SW19,2,2_2*%
%TO.N,Net-(D19-A)*%
X107315000Y-79610000D03*
%TO.P,SW19,1,1_1*%
%TO.N,/COL4*%
X100965000Y-82150000D03*
%TD*%
%TO.P,SW18,2,2_2*%
%TO.N,Net-(D18-A)*%
X88265000Y-79610000D03*
%TO.P,SW18,1,1_1*%
%TO.N,/COL3*%
X81915000Y-82150000D03*
%TD*%
%TO.P,SW17,2,2_2*%
%TO.N,Net-(D17-A)*%
X69215000Y-79610000D03*
%TO.P,SW17,1,1_1*%
%TO.N,/COL2*%
X62865000Y-82150000D03*
%TD*%
%TO.P,SW16,2,2_2*%
%TO.N,Net-(D16-A)*%
X45402500Y-79610000D03*
%TO.P,SW16,1,1_1*%
%TO.N,/COL1*%
X39052500Y-82150000D03*
%TD*%
%TO.P,SW15,2,2_2*%
%TO.N,Net-(D15-A)*%
X326390000Y-60560000D03*
%TO.P,SW15,1,1_1*%
%TO.N,/COL15*%
X320040000Y-63100000D03*
%TD*%
%TO.P,SW14,2,2_2*%
%TO.N,Net-(D14-A)*%
X297815000Y-60560000D03*
%TO.P,SW14,1,1_1*%
%TO.N,/COL14*%
X291465000Y-63100000D03*
%TD*%
%TO.P,SW13,2,2_2*%
%TO.N,Net-(D13-A)*%
X269240000Y-60560000D03*
%TO.P,SW13,1,1_1*%
%TO.N,/COL13*%
X262890000Y-63100000D03*
%TD*%
%TO.P,SW12,2,2_2*%
%TO.N,Net-(D12-A)*%
X250190000Y-60560000D03*
%TO.P,SW12,1,1_1*%
%TO.N,/COL12*%
X243840000Y-63100000D03*
%TD*%
%TO.P,SW11,2,2_2*%
%TO.N,Net-(D11-A)*%
X231140000Y-60560000D03*
%TO.P,SW11,1,1_1*%
%TO.N,/COL11*%
X224790000Y-63100000D03*
%TD*%
%TO.P,SW10,2,2_2*%
%TO.N,Net-(D10-A)*%
X212090000Y-60560000D03*
%TO.P,SW10,1,1_1*%
%TO.N,/COL10*%
X205740000Y-63100000D03*
%TD*%
%TO.P,SW9,2,2_2*%
%TO.N,Net-(D9-A)*%
X193040000Y-60560000D03*
%TO.P,SW9,1,1_1*%
%TO.N,/COL9*%
X186690000Y-63100000D03*
%TD*%
%TO.P,SW8,2,2_2*%
%TO.N,Net-(D8-A)*%
X173990000Y-60560000D03*
%TO.P,SW8,1,1_1*%
%TO.N,/COL8*%
X167640000Y-63100000D03*
%TD*%
%TO.P,SW7,2,2_2*%
%TO.N,Net-(D7-A)*%
X154940000Y-60560000D03*
%TO.P,SW7,1,1_1*%
%TO.N,/COL7*%
X148590000Y-63100000D03*
%TD*%
%TO.P,SW6,2,2_2*%
%TO.N,Net-(D6-A)*%
X135890000Y-60560000D03*
%TO.P,SW6,1,1_1*%
%TO.N,/COL6*%
X129540000Y-63100000D03*
%TD*%
%TO.P,SW5,2,2_2*%
%TO.N,Net-(D5-A)*%
X116840000Y-60560000D03*
%TO.P,SW5,1,1_1*%
%TO.N,/COL5*%
X110490000Y-63100000D03*
%TD*%
%TO.P,SW4,2,2_2*%
%TO.N,Net-(D4-A)*%
X97790000Y-60560000D03*
%TO.P,SW4,1,1_1*%
%TO.N,/COL4*%
X91440000Y-63100000D03*
%TD*%
%TO.P,SW3,2,2_2*%
%TO.N,Net-(D3-A)*%
X78740000Y-60560000D03*
%TO.P,SW3,1,1_1*%
%TO.N,/COL3*%
X72390000Y-63100000D03*
%TD*%
%TO.P,SW2,2,2_2*%
%TO.N,Net-(D2-A)*%
X59690000Y-60560000D03*
%TO.P,SW2,1,1_1*%
%TO.N,/COL2*%
X53340000Y-63100000D03*
%TD*%
%TO.P,SW1,2,2_2*%
%TO.N,Net-(D1-A)*%
X40640000Y-60560000D03*
%TO.P,SW1,1,1_1*%
%TO.N,/COL1*%
X34290000Y-63100000D03*
%TD*%
D13*
%TO.P,JS1,1,X_1*%
%TO.N,/A1*%
X79600000Y-49400000D03*
%TO.P,JS1,2,GND_2*%
%TO.N,GND*%
X79600000Y-47400000D03*
%TO.P,JS1,3,Y_3*%
%TO.N,/A0*%
X79600000Y-45400000D03*
%TO.P,JS1,4,VCC_4*%
%TO.N,+3V3*%
X79600000Y-43400000D03*
D14*
%TO.P,JS1,MP*%
%TO.N,N/C*%
X80550000Y-38071572D03*
X61367881Y-38900000D03*
%TD*%
D15*
%TO.P,EC1,S2,S2_S2*%
%TO.N,Net-(U2-GPB0)*%
X42350000Y-50422056D03*
%TO.P,EC1,S1,S1_S1*%
%TO.N,GND*%
X42350000Y-45422056D03*
D16*
%TO.P,EC1,MP*%
%TO.N,N/C*%
X49350000Y-42322056D03*
X49350000Y-53522056D03*
D17*
%TO.P,EC1,C,C_C*%
%TO.N,GND*%
X56850000Y-47922056D03*
D15*
%TO.P,EC1,B,B_B*%
%TO.N,Net-(U2-GPB2)*%
X56850000Y-45422056D03*
%TO.P,EC1,A,A_A*%
%TO.N,Net-(U2-GPB1)*%
X56850000Y-50422056D03*
%TD*%
D18*
%TO.P,U1,29,BAT+_29*%
%TO.N,unconnected-(U1-BAT+-Pad29)*%
X338180000Y-52390000D03*
D19*
%TO.P,U1,28,GND_28*%
%TO.N,GND*%
X338180000Y-37150000D03*
D18*
%TO.P,U1,27,P1.07-LF_27*%
%TO.N,/COL14*%
X310793720Y-45303400D03*
%TO.P,U1,26,P1.02-LF_26*%
%TO.N,/COL15*%
X310793720Y-42763400D03*
%TO.P,U1,25,P1.01-LF_25*%
%TO.N,unconnected-(U1-P1.01-LF-Pad25)*%
X310793720Y-40223400D03*
%TO.P,U1,24,P0.09-LF_24*%
%TO.N,/COL11*%
X307700000Y-52390000D03*
%TO.P,U1,23,P0.10-LF_23*%
%TO.N,/COL12*%
X310240000Y-52390000D03*
%TO.P,U1,22,P1.11-LF_22*%
%TO.N,/COL13*%
X312780000Y-52390000D03*
%TO.P,U1,21,P1.13-LF_21*%
%TO.N,/ROW1*%
X315320000Y-52390000D03*
%TO.P,U1,20,P1.15-LF_20*%
%TO.N,/ROW2*%
X317860000Y-52390000D03*
%TO.P,U1,19,P0.02-LF_19*%
%TO.N,/ROW3*%
X320400000Y-52390000D03*
%TO.P,U1,18,P0.29-LF_18*%
%TO.N,/ROW4*%
X322940000Y-52390000D03*
%TO.P,U1,17,P0.31-LF_17*%
%TO.N,/ROW5*%
X325480000Y-52390000D03*
%TO.P,U1,16,3V3_16*%
%TO.N,+3V3*%
X328020000Y-52390000D03*
%TO.P,U1,15,RST_15*%
%TO.N,unconnected-(U1-RST-Pad15)*%
X330560000Y-52390000D03*
D19*
%TO.P,U1,14,GND_14*%
%TO.N,GND*%
X333100000Y-52390000D03*
D20*
%TO.P,U1,13,BAT+_13*%
%TO.N,unconnected-(U1-BAT+-Pad13)*%
X336910000Y-52390000D03*
D18*
%TO.P,U1,12,P1.06-LF_12*%
%TO.N,/COL10*%
X307700000Y-37150000D03*
%TO.P,U1,11,P1.04-LF_11*%
%TO.N,/COL9*%
X310240000Y-37150000D03*
%TO.P,U1,10,P0.11_10*%
%TO.N,/COL8*%
X312780000Y-37150000D03*
%TO.P,U1,9,P1.00_9*%
%TO.N,/COL7*%
X315320000Y-37150000D03*
%TO.P,U1,8,P0.24_8*%
%TO.N,/COL6*%
X317860000Y-37150000D03*
%TO.P,U1,7,P0.22_7*%
%TO.N,/COL5*%
X320400000Y-37150000D03*
%TO.P,U1,6,P0.20_6*%
%TO.N,/COL4*%
X322940000Y-37150000D03*
%TO.P,U1,5,P0.17_5*%
%TO.N,/COL3*%
X325480000Y-37150000D03*
D19*
%TO.P,U1,4,GND_4*%
%TO.N,GND*%
X328020000Y-37150000D03*
%TO.P,U1,3,GND_3*%
X330560000Y-37150000D03*
D18*
%TO.P,U1,2,P0.08_2*%
%TO.N,/COL2*%
X333100000Y-37150000D03*
%TO.P,U1,1,P0.06_1*%
%TO.N,/COL1*%
X335640000Y-37150000D03*
%TD*%
D21*
%TO.P,D47,1,K_1*%
%TO.N,/ROW4*%
X58193750Y-130040000D03*
D10*
%TO.P,D47,2,A_2*%
%TO.N,Net-(D47-A)*%
X58193750Y-122420000D03*
%TD*%
%TO.P,D30,2,A_2*%
%TO.N,Net-(D30-A)*%
X332037500Y-84320000D03*
D21*
%TO.P,D30,1,K_1*%
%TO.N,/ROW2*%
X332037500Y-91940000D03*
%TD*%
D10*
%TO.P,D29,2,A_2*%
%TO.N,Net-(D29-A)*%
X308225000Y-84320000D03*
D21*
%TO.P,D29,1,K_1*%
%TO.N,/ROW2*%
X308225000Y-91940000D03*
%TD*%
D10*
%TO.P,D28,2,A_2*%
%TO.N,Net-(D28-A)*%
X284412500Y-84320000D03*
D21*
%TO.P,D28,1,K_1*%
%TO.N,/ROW2*%
X284412500Y-91940000D03*
%TD*%
D10*
%TO.P,D27,2,A_2*%
%TO.N,Net-(D27-A)*%
X265362500Y-84320000D03*
D21*
%TO.P,D27,1,K_1*%
%TO.N,/ROW2*%
X265362500Y-91940000D03*
%TD*%
D10*
%TO.P,D26,2,A_2*%
%TO.N,Net-(D26-A)*%
X246312500Y-84320000D03*
D21*
%TO.P,D26,1,K_1*%
%TO.N,/ROW2*%
X246312500Y-91940000D03*
%TD*%
D10*
%TO.P,D25,2,A_2*%
%TO.N,Net-(D25-A)*%
X227262500Y-84320000D03*
D21*
%TO.P,D25,1,K_1*%
%TO.N,/ROW2*%
X227262500Y-91940000D03*
%TD*%
D10*
%TO.P,D24,2,A_2*%
%TO.N,Net-(D24-A)*%
X208212500Y-84320000D03*
D21*
%TO.P,D24,1,K_1*%
%TO.N,/ROW2*%
X208212500Y-91940000D03*
%TD*%
D10*
%TO.P,D23,2,A_2*%
%TO.N,Net-(D23-A)*%
X189162500Y-84320000D03*
D21*
%TO.P,D23,1,K_1*%
%TO.N,/ROW2*%
X189162500Y-91940000D03*
%TD*%
D10*
%TO.P,D22,2,A_2*%
%TO.N,Net-(D22-A)*%
X170112500Y-84320000D03*
D21*
%TO.P,D22,1,K_1*%
%TO.N,/ROW2*%
X170112500Y-91940000D03*
%TD*%
D10*
%TO.P,D21,2,A_2*%
%TO.N,Net-(D21-A)*%
X151062500Y-84320000D03*
D21*
%TO.P,D21,1,K_1*%
%TO.N,/ROW2*%
X151062500Y-91940000D03*
%TD*%
D10*
%TO.P,D20,2,A_2*%
%TO.N,Net-(D20-A)*%
X132012500Y-84320000D03*
D21*
%TO.P,D20,1,K_1*%
%TO.N,/ROW2*%
X132012500Y-91940000D03*
%TD*%
D10*
%TO.P,D19,2,A_2*%
%TO.N,Net-(D19-A)*%
X112962500Y-84320000D03*
D21*
%TO.P,D19,1,K_1*%
%TO.N,/ROW2*%
X112962500Y-91940000D03*
%TD*%
D10*
%TO.P,D18,2,A_2*%
%TO.N,Net-(D18-A)*%
X93912500Y-84320000D03*
D21*
%TO.P,D18,1,K_1*%
%TO.N,/ROW2*%
X93912500Y-91940000D03*
%TD*%
D10*
%TO.P,D17,2,A_2*%
%TO.N,Net-(D17-A)*%
X74862500Y-84320000D03*
D21*
%TO.P,D17,1,K_1*%
%TO.N,/ROW2*%
X74862500Y-91940000D03*
%TD*%
D10*
%TO.P,D16,2,A_2*%
%TO.N,Net-(D16-A)*%
X51050000Y-84320000D03*
D21*
%TO.P,D16,1,K_1*%
%TO.N,/ROW2*%
X51050000Y-91940000D03*
%TD*%
%TO.P,D15,1,K_1*%
%TO.N,/ROW1*%
X332037500Y-72890000D03*
D10*
%TO.P,D15,2,A_2*%
%TO.N,Net-(D15-A)*%
X332037500Y-65270000D03*
%TD*%
%TO.P,D14,2,A_2*%
%TO.N,Net-(D14-A)*%
X303462500Y-65270000D03*
D21*
%TO.P,D14,1,K_1*%
%TO.N,/ROW1*%
X303462500Y-72890000D03*
%TD*%
D10*
%TO.P,D13,2,A_2*%
%TO.N,Net-(D13-A)*%
X274887500Y-65270000D03*
D21*
%TO.P,D13,1,K_1*%
%TO.N,/ROW1*%
X274887500Y-72890000D03*
%TD*%
D10*
%TO.P,D12,2,A_2*%
%TO.N,Net-(D12-A)*%
X255837500Y-65270000D03*
D21*
%TO.P,D12,1,K_1*%
%TO.N,/ROW1*%
X255837500Y-72890000D03*
%TD*%
D10*
%TO.P,D11,2,A_2*%
%TO.N,Net-(D11-A)*%
X236787500Y-65270000D03*
D21*
%TO.P,D11,1,K_1*%
%TO.N,/ROW1*%
X236787500Y-72890000D03*
%TD*%
D10*
%TO.P,D10,2,A_2*%
%TO.N,Net-(D10-A)*%
X217737500Y-65270000D03*
D21*
%TO.P,D10,1,K_1*%
%TO.N,/ROW1*%
X217737500Y-72890000D03*
%TD*%
D10*
%TO.P,D9,2,A_2*%
%TO.N,Net-(D9-A)*%
X198687500Y-65270000D03*
D21*
%TO.P,D9,1,K_1*%
%TO.N,/ROW1*%
X198687500Y-72890000D03*
%TD*%
D10*
%TO.P,D8,2,A_2*%
%TO.N,Net-(D8-A)*%
X179637500Y-65270000D03*
D21*
%TO.P,D8,1,K_1*%
%TO.N,/ROW1*%
X179637500Y-72890000D03*
%TD*%
D10*
%TO.P,D7,2,A_2*%
%TO.N,Net-(D7-A)*%
X160587500Y-65270000D03*
D21*
%TO.P,D7,1,K_1*%
%TO.N,/ROW1*%
X160587500Y-72890000D03*
%TD*%
D10*
%TO.P,D6,2,A_2*%
%TO.N,Net-(D6-A)*%
X141537500Y-65270000D03*
D21*
%TO.P,D6,1,K_1*%
%TO.N,/ROW1*%
X141537500Y-72890000D03*
%TD*%
D10*
%TO.P,D5,2,A_2*%
%TO.N,Net-(D5-A)*%
X122487500Y-65270000D03*
D21*
%TO.P,D5,1,K_1*%
%TO.N,/ROW1*%
X122487500Y-72890000D03*
%TD*%
D10*
%TO.P,D4,2,A_2*%
%TO.N,Net-(D4-A)*%
X103437500Y-65270000D03*
D21*
%TO.P,D4,1,K_1*%
%TO.N,/ROW1*%
X103437500Y-72890000D03*
%TD*%
D10*
%TO.P,D3,2,A_2*%
%TO.N,Net-(D3-A)*%
X84387500Y-65270000D03*
D21*
%TO.P,D3,1,K_1*%
%TO.N,/ROW1*%
X84387500Y-72890000D03*
%TD*%
D10*
%TO.P,D2,2,A_2*%
%TO.N,Net-(D2-A)*%
X65337500Y-65270000D03*
D21*
%TO.P,D2,1,K_1*%
%TO.N,/ROW1*%
X65337500Y-72890000D03*
%TD*%
D10*
%TO.P,D1,2,A_2*%
%TO.N,Net-(D1-A)*%
X46287500Y-65270000D03*
D21*
%TO.P,D1,1,K_1*%
%TO.N,/ROW1*%
X46287500Y-72890000D03*
%TD*%
D22*
%TO.P,REF\u002A\u002A,1*%
%TO.N,N/C*%
X221550000Y-27100000D03*
%TO.P,REF\u002A\u002A,2*%
X218550000Y-27100000D03*
%TO.P,REF\u002A\u002A,3*%
X217050000Y-27100000D03*
D23*
%TO.P,REF\u002A\u002A,MP*%
X215600000Y-23950000D03*
X215600000Y-26250000D03*
X223000000Y-23950000D03*
X223000000Y-26250000D03*
%TD*%
D21*
%TO.P,D48,1,K_1*%
%TO.N,/ROW4*%
X89150000Y-130040000D03*
D10*
%TO.P,D48,2,A_2*%
%TO.N,Net-(D48-A)*%
X89150000Y-122420000D03*
%TD*%
D21*
%TO.P,D46,1,K_1*%
%TO.N,/ROW4*%
X241550000Y-130040000D03*
D10*
%TO.P,D46,2,A_2*%
%TO.N,Net-(D46-A)*%
X241550000Y-122420000D03*
%TD*%
D21*
%TO.P,D55,1,K_1*%
%TO.N,/ROW4*%
X260600000Y-130040000D03*
D10*
%TO.P,D55,2,A_2*%
%TO.N,Net-(D55-A)*%
X260600000Y-122420000D03*
%TD*%
D21*
%TO.P,D66,1,K_1*%
%TO.N,/ROW5*%
X293937500Y-149090000D03*
D10*
%TO.P,D66,2,A_2*%
%TO.N,Net-(D66-A)*%
X293937500Y-141470000D03*
%TD*%
D21*
%TO.P,D31,1,K_1*%
%TO.N,/ROW3*%
X53431250Y-110990000D03*
D10*
%TO.P,D31,2,A_2*%
%TO.N,Net-(D31-A)*%
X53431250Y-103370000D03*
%TD*%
D21*
%TO.P,D35,1,K_1*%
%TO.N,/ROW3*%
X136775000Y-110990000D03*
D10*
%TO.P,D35,2,A_2*%
%TO.N,Net-(D35-A)*%
X136775000Y-103370000D03*
%TD*%
D21*
%TO.P,D36,1,K_1*%
%TO.N,/ROW3*%
X155825000Y-110990000D03*
D10*
%TO.P,D36,2,A_2*%
%TO.N,Net-(D36-A)*%
X155825000Y-103370000D03*
%TD*%
D21*
%TO.P,D61,1,K_1*%
%TO.N,/ROW5*%
X96293750Y-149090000D03*
D10*
%TO.P,D61,2,A_2*%
%TO.N,Net-(D61-A)*%
X96293750Y-141470000D03*
%TD*%
D21*
%TO.P,D44,1,K_1*%
%TO.N,/ROW3*%
X332037500Y-110990000D03*
D10*
%TO.P,D44,2,A_2*%
%TO.N,Net-(D44-A)*%
X332037500Y-103370000D03*
%TD*%
D21*
%TO.P,D49,1,K_1*%
%TO.N,/ROW4*%
X108200000Y-130040000D03*
D10*
%TO.P,D49,2,A_2*%
%TO.N,Net-(D49-A)*%
X108200000Y-122420000D03*
%TD*%
D21*
%TO.P,D41,1,K_1*%
%TO.N,/ROW3*%
X251075000Y-110990000D03*
D10*
%TO.P,D41,2,A_2*%
%TO.N,Net-(D41-A)*%
X251075000Y-103370000D03*
%TD*%
D21*
%TO.P,D63,1,K_1*%
%TO.N,/ROW5*%
X236787500Y-149090000D03*
D10*
%TO.P,D63,2,A_2*%
%TO.N,Net-(D63-A)*%
X236787500Y-141470000D03*
%TD*%
D21*
%TO.P,D53,1,K_1*%
%TO.N,/ROW4*%
X184400000Y-130040000D03*
D10*
%TO.P,D53,2,A_2*%
%TO.N,Net-(D53-A)*%
X184400000Y-122420000D03*
%TD*%
D21*
%TO.P,D64,1,K_1*%
%TO.N,/ROW5*%
X255837500Y-149090000D03*
D10*
%TO.P,D64,2,A_2*%
%TO.N,Net-(D64-A)*%
X255837500Y-141470000D03*
%TD*%
D21*
%TO.P,D34,1,K_1*%
%TO.N,/ROW3*%
X117725000Y-110990000D03*
D10*
%TO.P,D34,2,A_2*%
%TO.N,Net-(D34-A)*%
X117725000Y-103370000D03*
%TD*%
D21*
%TO.P,D40,1,K_1*%
%TO.N,/ROW3*%
X232025000Y-110990000D03*
D10*
%TO.P,D40,2,A_2*%
%TO.N,Net-(D40-A)*%
X232025000Y-103370000D03*
%TD*%
D21*
%TO.P,D37,1,K_1*%
%TO.N,/ROW3*%
X174875000Y-110990000D03*
D10*
%TO.P,D37,2,A_2*%
%TO.N,Net-(D37-A)*%
X174875000Y-103370000D03*
%TD*%
D21*
%TO.P,D56,1,K_1*%
%TO.N,/ROW4*%
X286793750Y-130040000D03*
D10*
%TO.P,D56,2,A_2*%
%TO.N,Net-(D56-A)*%
X286793750Y-122420000D03*
%TD*%
D21*
%TO.P,D68,1,K_1*%
%TO.N,/ROW5*%
X332037500Y-149090000D03*
D10*
%TO.P,D68,2,A_2*%
%TO.N,Net-(D68-A)*%
X332037500Y-141470000D03*
%TD*%
D21*
%TO.P,D65,1,K_1*%
%TO.N,/ROW5*%
X274887500Y-149090000D03*
D10*
%TO.P,D65,2,A_2*%
%TO.N,Net-(D65-A)*%
X274887500Y-141470000D03*
%TD*%
D21*
%TO.P,D38,1,K_1*%
%TO.N,/ROW3*%
X193925000Y-110990000D03*
D10*
%TO.P,D38,2,A_2*%
%TO.N,Net-(D38-A)*%
X193925000Y-103370000D03*
%TD*%
D21*
%TO.P,D32,1,K_1*%
%TO.N,/ROW3*%
X79625000Y-110990000D03*
D10*
%TO.P,D32,2,A_2*%
%TO.N,Net-(D32-A)*%
X79625000Y-103370000D03*
%TD*%
D21*
%TO.P,D62,1,K_1*%
%TO.N,/ROW5*%
X167731250Y-149090000D03*
D10*
%TO.P,D62,2,A_2*%
%TO.N,Net-(D62-A)*%
X167731250Y-141470000D03*
%TD*%
D21*
%TO.P,D59,1,K_1*%
%TO.N,/ROW5*%
X48668750Y-149090000D03*
D10*
%TO.P,D59,2,A_2*%
%TO.N,Net-(D59-A)*%
X48668750Y-141470000D03*
%TD*%
D21*
%TO.P,D60,1,K_1*%
%TO.N,/ROW5*%
X72481250Y-149090000D03*
D10*
%TO.P,D60,2,A_2*%
%TO.N,Net-(D60-A)*%
X72481250Y-141470000D03*
%TD*%
D21*
%TO.P,D39,1,K_1*%
%TO.N,/ROW3*%
X212975000Y-110990000D03*
D10*
%TO.P,D39,2,A_2*%
%TO.N,Net-(D39-A)*%
X212975000Y-103370000D03*
%TD*%
D21*
%TO.P,D42,1,K_1*%
%TO.N,/ROW3*%
X270125000Y-110990000D03*
D10*
%TO.P,D42,2,A_2*%
%TO.N,Net-(D42-A)*%
X270125000Y-103370000D03*
%TD*%
D21*
%TO.P,D43,1,K_1*%
%TO.N,/ROW3*%
X301081250Y-110990000D03*
D10*
%TO.P,D43,2,A_2*%
%TO.N,Net-(D43-A)*%
X301081250Y-103370000D03*
%TD*%
D21*
%TO.P,D45,1,K_1*%
%TO.N,/ROW4*%
X203450000Y-130040000D03*
D10*
%TO.P,D45,2,A_2*%
%TO.N,Net-(D45-A)*%
X203450000Y-122420000D03*
%TD*%
D21*
%TO.P,D51,1,K_1*%
%TO.N,/ROW4*%
X146300000Y-130040000D03*
D10*
%TO.P,D51,2,A_2*%
%TO.N,Net-(D51-A)*%
X146300000Y-122420000D03*
%TD*%
D21*
%TO.P,D33,1,K_1*%
%TO.N,/ROW3*%
X98675000Y-110990000D03*
D10*
%TO.P,D33,2,A_2*%
%TO.N,Net-(D33-A)*%
X98675000Y-103370000D03*
%TD*%
D21*
%TO.P,D58,1,K_1*%
%TO.N,/ROW4*%
X332037500Y-130040000D03*
D10*
%TO.P,D58,2,A_2*%
%TO.N,Net-(D58-A)*%
X332037500Y-122420000D03*
%TD*%
D21*
%TO.P,D52,1,K_1*%
%TO.N,/ROW4*%
X165350000Y-130040000D03*
D10*
%TO.P,D52,2,A_2*%
%TO.N,Net-(D52-A)*%
X165350000Y-122420000D03*
%TD*%
D21*
%TO.P,D57,1,K_1*%
%TO.N,/ROW4*%
X312987500Y-130040000D03*
D10*
%TO.P,D57,2,A_2*%
%TO.N,Net-(D57-A)*%
X312987500Y-122420000D03*
%TD*%
D21*
%TO.P,D67,1,K_1*%
%TO.N,/ROW5*%
X312987500Y-149090000D03*
D10*
%TO.P,D67,2,A_2*%
%TO.N,Net-(D67-A)*%
X312987500Y-141470000D03*
%TD*%
D21*
%TO.P,D50,1,K_1*%
%TO.N,/ROW4*%
X127250000Y-130040000D03*
D10*
%TO.P,D50,2,A_2*%
%TO.N,Net-(D50-A)*%
X127250000Y-122420000D03*
%TD*%
D21*
%TO.P,D54,1,K_1*%
%TO.N,/ROW4*%
X222500000Y-130040000D03*
D10*
%TO.P,D54,2,A_2*%
%TO.N,Net-(D54-A)*%
X222500000Y-122420000D03*
%TD*%
%TO.N,+3V3*%
D24*
X79600000Y-43400000D02*
X261810000Y-43400000D01*
%TO.N,Net-(U2-GPB1)*%
X279590000Y-40100000D02*
X281240000Y-41750000D01*
X67234315Y-40100000D02*
X279590000Y-40100000D01*
X63212259Y-44122056D02*
X67234315Y-40100000D01*
X56311522Y-44122056D02*
X63212259Y-44122056D01*
X55550000Y-44883578D02*
X56311522Y-44122056D01*
X55550000Y-49122056D02*
X55550000Y-44883578D01*
X56850000Y-50422056D02*
X55550000Y-49122056D01*
%TO.N,Net-(U2-GPB2)*%
X62477944Y-45422056D02*
X56850000Y-45422056D01*
X277450000Y-40500000D02*
X67400000Y-40500000D01*
X67400000Y-40500000D02*
X62477944Y-45422056D01*
X278700000Y-41750000D02*
X277450000Y-40500000D01*
%TO.N,+3V3*%
X261810000Y-43400000D02*
X263460000Y-41750000D01*
%TO.N,Net-(U2-GPB0)*%
X278401572Y-36371572D02*
X283780000Y-41750000D01*
X61492145Y-36371572D02*
X278401572Y-36371572D01*
X42350000Y-50422056D02*
X47441661Y-50422056D01*
X47441661Y-50422056D02*
X61492145Y-36371572D01*
%TO.N,/A0*%
X246790000Y-45400000D02*
X250760000Y-49370000D01*
X79600000Y-45400000D02*
X246790000Y-45400000D01*
%TO.N,/A1*%
X252200000Y-50470000D02*
X253300000Y-49370000D01*
X80670000Y-50470000D02*
X252200000Y-50470000D01*
X79600000Y-49400000D02*
X80670000Y-50470000D01*
%TO.N,GND*%
X79077944Y-47922056D02*
X79600000Y-47400000D01*
X56850000Y-47922056D02*
X79077944Y-47922056D01*
%TO.N,/COL15*%
X320040000Y-120250000D02*
X320040000Y-139300000D01*
X320040000Y-101200000D02*
X320040000Y-120250000D01*
X320040000Y-82150000D02*
X320040000Y-101200000D01*
X320040000Y-63100000D02*
X320040000Y-82150000D01*
%TO.N,Net-(D58-A)*%
X332037500Y-122420000D02*
X331100000Y-122420000D01*
X331100000Y-122420000D02*
X326390000Y-117710000D01*
%TO.N,Net-(D24-A)*%
X202565000Y-79610000D02*
X207275000Y-84320000D01*
X207275000Y-84320000D02*
X208212500Y-84320000D01*
%TO.N,/COL1*%
X34290000Y-62830000D02*
X34000000Y-62540000D01*
X41433750Y-101200000D02*
X41433750Y-115487500D01*
X46196250Y-120250000D02*
X46196250Y-129775000D01*
X34290000Y-63100000D02*
X34290000Y-62830000D01*
X41433750Y-115487500D02*
X46196250Y-120250000D01*
X46196250Y-129775000D02*
X36671250Y-139300000D01*
X39052500Y-98818750D02*
X41433750Y-101200000D01*
X34290000Y-63100000D02*
X34290000Y-77387500D01*
X39052500Y-82150000D02*
X39052500Y-98818750D01*
X34290000Y-77387500D02*
X39052500Y-82150000D01*
%TO.N,Net-(D59-A)*%
X48668750Y-141470000D02*
X43958750Y-136760000D01*
X43958750Y-136760000D02*
X43021250Y-136760000D01*
%TO.N,Net-(D30-A)*%
X331100000Y-84320000D02*
X332037500Y-84320000D01*
X326390000Y-79610000D02*
X331100000Y-84320000D01*
%TO.N,/COL7*%
X158115000Y-82150000D02*
X158115000Y-96437500D01*
X172402500Y-120250000D02*
X162877500Y-110725000D01*
X148590000Y-63100000D02*
X148590000Y-72625000D01*
X148590000Y-72625000D02*
X158115000Y-82150000D01*
X158115000Y-96437500D02*
X162877500Y-101200000D01*
X162877500Y-110725000D02*
X162877500Y-101200000D01*
%TO.N,Net-(D38-A)*%
X193925000Y-103370000D02*
X189215000Y-98660000D01*
X189215000Y-98660000D02*
X188277500Y-98660000D01*
%TO.N,/COL14*%
X291465000Y-63100000D02*
X291465000Y-77387500D01*
X289083750Y-101200000D02*
X289083750Y-108343750D01*
X289083750Y-108343750D02*
X300990000Y-120250000D01*
X300990000Y-120250000D02*
X300990000Y-139300000D01*
X296227500Y-82150000D02*
X296227500Y-94056250D01*
X291465000Y-77387500D02*
X296227500Y-82150000D01*
X296227500Y-94056250D02*
X289083750Y-101200000D01*
%TO.N,Net-(D29-A)*%
X307287500Y-84320000D02*
X308225000Y-84320000D01*
X302577500Y-79610000D02*
X307287500Y-84320000D01*
%TO.N,Net-(D14-A)*%
X297815000Y-60560000D02*
X302525000Y-65270000D01*
X302525000Y-65270000D02*
X303462500Y-65270000D01*
%TO.N,Net-(D48-A)*%
X83502500Y-117710000D02*
X88212500Y-122420000D01*
X88212500Y-122420000D02*
X89150000Y-122420000D01*
%TO.N,Net-(D5-A)*%
X116840000Y-60560000D02*
X121550000Y-65270000D01*
X121550000Y-65270000D02*
X122487500Y-65270000D01*
%TO.N,Net-(D25-A)*%
X226325000Y-84320000D02*
X227262500Y-84320000D01*
X221615000Y-79610000D02*
X226325000Y-84320000D01*
%TO.N,Net-(D20-A)*%
X131075000Y-84320000D02*
X132012500Y-84320000D01*
X126365000Y-79610000D02*
X131075000Y-84320000D01*
%TO.N,/COL9*%
X186690000Y-63100000D02*
X191274775Y-63100000D01*
X200977500Y-110725000D02*
X210502500Y-120250000D01*
X191274775Y-63100000D02*
X196215000Y-68040225D01*
X224790000Y-139300000D02*
X210502500Y-125012500D01*
X196215000Y-96437500D02*
X200977500Y-101200000D01*
X196215000Y-68040225D02*
X196215000Y-82150000D01*
X200977500Y-101200000D02*
X200977500Y-110725000D01*
X196215000Y-82150000D02*
X196215000Y-96437500D01*
X210502500Y-125012500D02*
X210502500Y-120250000D01*
%TO.N,Net-(D40-A)*%
X232025000Y-103370000D02*
X227315000Y-98660000D01*
X227315000Y-98660000D02*
X226377500Y-98660000D01*
%TO.N,/COL11*%
X262890000Y-139300000D02*
X248602500Y-125012500D01*
X234315000Y-96437500D02*
X234315000Y-82150000D01*
X224790000Y-72625000D02*
X224790000Y-63100000D01*
X239077500Y-110725000D02*
X248602500Y-120250000D01*
X234315000Y-82150000D02*
X224790000Y-72625000D01*
X239077500Y-101200000D02*
X234315000Y-96437500D01*
X248602500Y-125012500D02*
X248602500Y-120250000D01*
X239077500Y-101200000D02*
X239077500Y-110725000D01*
%TO.N,Net-(D42-A)*%
X270125000Y-103370000D02*
X265415000Y-98660000D01*
X265415000Y-98660000D02*
X264477500Y-98660000D01*
%TO.N,/COL3*%
X86677500Y-101200000D02*
X86677500Y-110725000D01*
X72390000Y-63100000D02*
X72390000Y-72625000D01*
X86677500Y-110725000D02*
X96202500Y-120250000D01*
X81915000Y-96437500D02*
X86677500Y-101200000D01*
X96202500Y-127393750D02*
X84296250Y-139300000D01*
X96202500Y-120250000D02*
X96202500Y-127393750D01*
X72390000Y-72625000D02*
X81915000Y-82150000D01*
X81915000Y-82150000D02*
X81915000Y-96437500D01*
%TO.N,Net-(D4-A)*%
X103437500Y-65270000D02*
X98727500Y-60560000D01*
X98727500Y-60560000D02*
X97790000Y-60560000D01*
%TO.N,/COL6*%
X143827500Y-110725000D02*
X153352500Y-120250000D01*
X143827500Y-101200000D02*
X139065000Y-96437500D01*
X129540000Y-72625000D02*
X139065000Y-82150000D01*
X129540000Y-63100000D02*
X129540000Y-72625000D01*
X153352500Y-120250000D02*
X153352500Y-136932500D01*
X153352500Y-136932500D02*
X155720000Y-139300000D01*
X143827500Y-101200000D02*
X143827500Y-110725000D01*
X139065000Y-96437500D02*
X139065000Y-82150000D01*
%TO.N,Net-(D7-A)*%
X154940000Y-60560000D02*
X159650000Y-65270000D01*
X159650000Y-65270000D02*
X160587500Y-65270000D01*
%TO.N,Net-(D54-A)*%
X216852500Y-117710000D02*
X221562500Y-122420000D01*
X221562500Y-122420000D02*
X222500000Y-122420000D01*
%TO.N,Net-(D46-A)*%
X235902500Y-117710000D02*
X240612500Y-122420000D01*
X240612500Y-122420000D02*
X241550000Y-122420000D01*
%TO.N,Net-(D26-A)*%
X245375000Y-84320000D02*
X246312500Y-84320000D01*
X240665000Y-79610000D02*
X245375000Y-84320000D01*
%TO.N,/COL10*%
X215265000Y-82150000D02*
X215265000Y-96437500D01*
X215265000Y-96437500D02*
X220027500Y-101200000D01*
X229552500Y-125012500D02*
X229552500Y-120250000D01*
X243840000Y-139300000D02*
X229552500Y-125012500D01*
X205740000Y-63100000D02*
X205740000Y-72625000D01*
X220027500Y-101200000D02*
X220027500Y-110725000D01*
X205740000Y-72625000D02*
X215265000Y-82150000D01*
X220027500Y-110725000D02*
X229552500Y-120250000D01*
%TO.N,Net-(D55-A)*%
X254952500Y-117710000D02*
X259662500Y-122420000D01*
X259662500Y-122420000D02*
X260600000Y-122420000D01*
%TO.N,Net-(D18-A)*%
X89202500Y-79610000D02*
X88265000Y-79610000D01*
X93912500Y-84320000D02*
X89202500Y-79610000D01*
%TO.N,/ROW5*%
X235448600Y-147751100D02*
X169056400Y-147751100D01*
X255837500Y-149090000D02*
X274887500Y-149090000D01*
X169056400Y-147751100D02*
X167717500Y-149090000D01*
X97632650Y-147751100D02*
X166392350Y-147751100D01*
X48668750Y-149090000D02*
X72481250Y-149090000D01*
X236787500Y-149090000D02*
X235448600Y-147751100D01*
X96293750Y-149090000D02*
X97632650Y-147751100D01*
X72481250Y-149090000D02*
X96293750Y-149090000D01*
X236787500Y-149090000D02*
X255837500Y-149090000D01*
X293937500Y-149090000D02*
X312987500Y-149090000D01*
X312987500Y-149090000D02*
X332037500Y-149090000D01*
X274887500Y-149090000D02*
X293937500Y-149090000D01*
X166392350Y-147751100D02*
X167731250Y-149090000D01*
%TO.N,Net-(D66-A)*%
X288290000Y-136760000D02*
X293000000Y-141470000D01*
X293000000Y-141470000D02*
X293937500Y-141470000D01*
%TO.N,Net-(D32-A)*%
X74915000Y-98660000D02*
X73977500Y-98660000D01*
X79625000Y-103370000D02*
X74915000Y-98660000D01*
%TO.N,Net-(D53-A)*%
X178752500Y-117710000D02*
X183462500Y-122420000D01*
X183462500Y-122420000D02*
X184400000Y-122420000D01*
%TO.N,Net-(D36-A)*%
X151115000Y-98660000D02*
X150177500Y-98660000D01*
X155825000Y-103370000D02*
X151115000Y-98660000D01*
%TO.N,Net-(D8-A)*%
X173990000Y-60560000D02*
X178700000Y-65270000D01*
X178700000Y-65270000D02*
X179637500Y-65270000D01*
%TO.N,Net-(D37-A)*%
X173937500Y-103370000D02*
X174875000Y-103370000D01*
X169227500Y-98660000D02*
X173937500Y-103370000D01*
%TO.N,/COL5*%
X124777500Y-110725000D02*
X134302500Y-120250000D01*
X110490000Y-72625000D02*
X120015000Y-82150000D01*
X120015000Y-82150000D02*
X120015000Y-96437500D01*
X124777500Y-101200000D02*
X124777500Y-110725000D01*
X110490000Y-63100000D02*
X110490000Y-72625000D01*
X120015000Y-96437500D02*
X124777500Y-101200000D01*
%TO.N,Net-(D51-A)*%
X140652500Y-117710000D02*
X145362500Y-122420000D01*
X145362500Y-122420000D02*
X146300000Y-122420000D01*
%TO.N,Net-(D61-A)*%
X95356250Y-141470000D02*
X96293750Y-141470000D01*
X90646250Y-136760000D02*
X95356250Y-141470000D01*
%TO.N,Net-(D31-A)*%
X47783750Y-98660000D02*
X52493750Y-103370000D01*
X52493750Y-103370000D02*
X53431250Y-103370000D01*
%TO.N,Net-(D6-A)*%
X135890000Y-60560000D02*
X140600000Y-65270000D01*
X140600000Y-65270000D02*
X141537500Y-65270000D01*
%TO.N,Net-(D49-A)*%
X102552500Y-117710000D02*
X107262500Y-122420000D01*
X107262500Y-122420000D02*
X108200000Y-122420000D01*
%TO.N,/COL13*%
X272415000Y-82150000D02*
X262890000Y-72625000D01*
X274796250Y-120250000D02*
X272415000Y-117868750D01*
X272415000Y-117868750D02*
X272415000Y-82150000D01*
X262890000Y-72625000D02*
X262890000Y-63100000D01*
X281940000Y-139300000D02*
X274796250Y-132156250D01*
X274796250Y-132156250D02*
X274796250Y-120250000D01*
%TO.N,Net-(D28-A)*%
X283475000Y-84320000D02*
X284412500Y-84320000D01*
X278765000Y-79610000D02*
X283475000Y-84320000D01*
%TO.N,Net-(D2-A)*%
X59690000Y-60560000D02*
X64400000Y-65270000D01*
X64400000Y-65270000D02*
X65337500Y-65270000D01*
%TO.N,Net-(D64-A)*%
X254900000Y-141470000D02*
X255837500Y-141470000D01*
X250190000Y-136760000D02*
X254900000Y-141470000D01*
%TO.N,Net-(D23-A)*%
X188225000Y-84320000D02*
X189162500Y-84320000D01*
X183515000Y-79610000D02*
X188225000Y-84320000D01*
%TO.N,/COL12*%
X253365000Y-82150000D02*
X253365000Y-96437500D01*
X243840000Y-72625000D02*
X253365000Y-82150000D01*
X253365000Y-96437500D02*
X258127500Y-101200000D01*
X243840000Y-63100000D02*
X243840000Y-72625000D01*
%TO.N,Net-(D13-A)*%
X273950000Y-65270000D02*
X274887500Y-65270000D01*
X269240000Y-60560000D02*
X273950000Y-65270000D01*
%TO.N,Net-(D22-A)*%
X169175000Y-84320000D02*
X170112500Y-84320000D01*
X164465000Y-79610000D02*
X169175000Y-84320000D01*
%TO.N,Net-(D3-A)*%
X78740000Y-60560000D02*
X83450000Y-65270000D01*
X83450000Y-65270000D02*
X84387500Y-65270000D01*
%TO.N,Net-(D65-A)*%
X269240000Y-136760000D02*
X273950000Y-141470000D01*
X273950000Y-141470000D02*
X274887500Y-141470000D01*
%TO.N,Net-(D56-A)*%
X282083750Y-117710000D02*
X281146250Y-117710000D01*
X286793750Y-122420000D02*
X282083750Y-117710000D01*
%TO.N,/COL2*%
X67627500Y-101200000D02*
X67627500Y-110725000D01*
X53340000Y-63100000D02*
X53340000Y-72625000D01*
X67627500Y-110725000D02*
X77152500Y-120250000D01*
X60483750Y-135788525D02*
X60483750Y-139300000D01*
X62865000Y-96437500D02*
X67627500Y-101200000D01*
X77152500Y-120250000D02*
X76022275Y-120250000D01*
X53340000Y-72625000D02*
X62865000Y-82150000D01*
X62865000Y-82150000D02*
X62865000Y-96437500D01*
X76022275Y-120250000D02*
X60483750Y-135788525D01*
%TO.N,Net-(D15-A)*%
X326390000Y-60560000D02*
X331100000Y-65270000D01*
X331100000Y-65270000D02*
X332037500Y-65270000D01*
%TO.N,/COL4*%
X91440000Y-63100000D02*
X91440000Y-72625000D01*
X115252500Y-120250000D02*
X105727500Y-110725000D01*
X91440000Y-72625000D02*
X100965000Y-82150000D01*
X105727500Y-110725000D02*
X105727500Y-101200000D01*
X100965000Y-96437500D02*
X105727500Y-101200000D01*
X100965000Y-82150000D02*
X100965000Y-96437500D01*
%TO.N,Net-(D19-A)*%
X107315000Y-79610000D02*
X112025000Y-84320000D01*
X112025000Y-84320000D02*
X112962500Y-84320000D01*
%TO.N,Net-(D41-A)*%
X251075000Y-103370000D02*
X246365000Y-98660000D01*
X246365000Y-98660000D02*
X245427500Y-98660000D01*
%TO.N,Net-(D60-A)*%
X72481250Y-141470000D02*
X67771250Y-136760000D01*
X67771250Y-136760000D02*
X66833750Y-136760000D01*
%TO.N,Net-(D10-A)*%
X212090000Y-60560000D02*
X216800000Y-65270000D01*
X216800000Y-65270000D02*
X217737500Y-65270000D01*
%TO.N,Net-(D1-A)*%
X45350000Y-65270000D02*
X46287500Y-65270000D01*
X40640000Y-60560000D02*
X45350000Y-65270000D01*
%TO.N,Net-(D67-A)*%
X307340000Y-136760000D02*
X312050000Y-141470000D01*
X312050000Y-141470000D02*
X312987500Y-141470000D01*
%TO.N,Net-(D68-A)*%
X326390000Y-136760000D02*
X331100000Y-141470000D01*
X331100000Y-141470000D02*
X332037500Y-141470000D01*
%TO.N,Net-(D62-A)*%
X167717500Y-141470000D02*
X163007500Y-136760000D01*
X163007500Y-136760000D02*
X162070000Y-136760000D01*
%TO.N,Net-(D9-A)*%
X193040000Y-60560000D02*
X197750000Y-65270000D01*
X197750000Y-65270000D02*
X198687500Y-65270000D01*
%TO.N,Net-(D39-A)*%
X208265000Y-98660000D02*
X207327500Y-98660000D01*
X212975000Y-103370000D02*
X208265000Y-98660000D01*
%TO.N,Net-(D57-A)*%
X307340000Y-117710000D02*
X312050000Y-122420000D01*
X312050000Y-122420000D02*
X312987500Y-122420000D01*
%TO.N,Net-(D43-A)*%
X296371250Y-98660000D02*
X295433750Y-98660000D01*
X301081250Y-103370000D02*
X296371250Y-98660000D01*
%TO.N,Net-(D47-A)*%
X57256250Y-122420000D02*
X58193750Y-122420000D01*
X52546250Y-117710000D02*
X57256250Y-122420000D01*
%TO.N,Net-(D33-A)*%
X97737500Y-103370000D02*
X98675000Y-103370000D01*
X93027500Y-98660000D02*
X97737500Y-103370000D01*
%TO.N,/COL8*%
X191452500Y-120250000D02*
X181927500Y-110725000D01*
X181927500Y-101200000D02*
X177165000Y-96437500D01*
X181927500Y-110725000D02*
X181927500Y-101200000D01*
X167640000Y-72625000D02*
X167640000Y-63100000D01*
X177165000Y-82150000D02*
X167640000Y-72625000D01*
X177165000Y-96437500D02*
X177165000Y-82150000D01*
%TO.N,Net-(D45-A)*%
X197802500Y-117710000D02*
X202512500Y-122420000D01*
X202512500Y-122420000D02*
X203450000Y-122420000D01*
%TO.N,Net-(D16-A)*%
X50112500Y-84320000D02*
X51050000Y-84320000D01*
X45402500Y-79610000D02*
X50112500Y-84320000D01*
%TO.N,Net-(D63-A)*%
X235850000Y-141470000D02*
X236787500Y-141470000D01*
X231140000Y-136760000D02*
X235850000Y-141470000D01*
%TO.N,Net-(D21-A)*%
X151062500Y-84320000D02*
X146352500Y-79610000D01*
X146352500Y-79610000D02*
X145415000Y-79610000D01*
%TO.N,Net-(D27-A)*%
X259715000Y-79610000D02*
X264425000Y-84320000D01*
X264425000Y-84320000D02*
X265362500Y-84320000D01*
%TO.N,Net-(D52-A)*%
X159702500Y-117710000D02*
X164412500Y-122420000D01*
X164412500Y-122420000D02*
X165350000Y-122420000D01*
%TO.N,Net-(D50-A)*%
X121602500Y-117710000D02*
X126312500Y-122420000D01*
X126312500Y-122420000D02*
X127250000Y-122420000D01*
%TO.N,Net-(D12-A)*%
X250190000Y-60560000D02*
X254900000Y-65270000D01*
X254900000Y-65270000D02*
X255837500Y-65270000D01*
%TO.N,Net-(D11-A)*%
X231140000Y-60560000D02*
X235850000Y-65270000D01*
X235850000Y-65270000D02*
X236787500Y-65270000D01*
%TO.N,Net-(D44-A)*%
X331100000Y-103370000D02*
X332037500Y-103370000D01*
X326390000Y-98660000D02*
X331100000Y-103370000D01*
%TO.N,Net-(D34-A)*%
X113015000Y-98660000D02*
X112077500Y-98660000D01*
X117725000Y-103370000D02*
X113015000Y-98660000D01*
%TO.N,Net-(D17-A)*%
X70152500Y-79610000D02*
X69215000Y-79610000D01*
X74862500Y-84320000D02*
X70152500Y-79610000D01*
%TO.N,+3V3*%
X263460000Y-41750000D02*
X264560000Y-42850000D01*
X314530000Y-38900000D02*
X328020000Y-52390000D01*
X308400000Y-38900000D02*
X314530000Y-38900000D01*
X264560000Y-42850000D02*
X304450000Y-42850000D01*
X304450000Y-42850000D02*
X308400000Y-38900000D01*
X258380000Y-49370000D02*
X258380000Y-46830000D01*
X258380000Y-46830000D02*
X261810000Y-43400000D01*
%TD*%
M02*
