M48
; DRILL file KiCad 10.0.0 date 2026-10-01T13:48:54
; FORMAT={-:-/ absolute / metric / decimal}
; #@! TF.CreationDate,2026-10-01T13:48:54+10:00
; #@! TF.GenerationSoftware,Kicad,Pcbnew,10.0.0
; #@! TF.FileFunction,NonPlated,1,2,NPTH
FMAT,2
METRIC
; #@! TA.AperFunction,NonPlated,NPTH,ComponentDrill
T1C0.850
; #@! TA.AperFunction,NonPlated,NPTH,ComponentDrill
T2C1.750
; #@! TA.AperFunction,NonPlated,NPTH,ComponentDrill
T3C2.200
; #@! TA.AperFunction,NonPlated,NPTH,ComponentDrill
T4C3.048
; #@! TA.AperFunction,NonPlated,NPTH,ComponentDrill
T5C3.988
%
G90
G05
T1
X217.8Y-25.1
X220.8Y-25.1
T2
X33.02Y-65.64
X35.401Y-141.84
X37.782Y-84.69
X40.164Y-103.74
X43.18Y-65.64
X44.926Y-122.79
X45.561Y-141.84
X47.942Y-84.69
X50.324Y-103.74
X52.07Y-65.64
X55.086Y-122.79
X59.214Y-141.84
X61.595Y-84.69
X62.23Y-65.64
X66.358Y-103.74
X69.374Y-141.84
X71.12Y-65.64
X71.755Y-84.69
X75.882Y-122.79
X76.517Y-103.74
X80.645Y-84.69
X81.28Y-65.64
X83.026Y-141.84
X85.407Y-103.74
X86.042Y-122.79
X90.17Y-65.64
X90.805Y-84.69
X93.186Y-141.84
X94.932Y-122.79
X95.567Y-103.74
X99.695Y-84.69
X100.33Y-65.64
X104.457Y-103.74
X105.093Y-122.79
X109.22Y-65.64
X109.855Y-84.69
X113.983Y-122.79
X114.617Y-103.74
X118.745Y-84.69
X119.38Y-65.64
X123.507Y-103.74
X124.142Y-122.79
X128.27Y-65.64
X128.905Y-84.69
X133.032Y-122.79
X133.667Y-103.74
X137.795Y-84.69
X138.43Y-65.64
X142.558Y-103.74
X143.192Y-122.79
X147.32Y-65.64
X147.955Y-84.69
X152.082Y-122.79
X152.718Y-103.74
X154.464Y-141.84
X156.845Y-84.69
X157.48Y-65.64
X161.607Y-103.74
X162.243Y-122.79
X164.624Y-141.84
X166.37Y-65.64
X167.005Y-84.69
X171.132Y-122.79
X171.767Y-103.74
X175.895Y-84.69
X176.53Y-65.64
X180.657Y-103.74
X181.292Y-122.79
X185.42Y-65.64
X186.055Y-84.69
X190.183Y-122.79
X190.817Y-103.74
X194.945Y-84.69
X195.58Y-65.64
X199.707Y-103.74
X200.343Y-122.79
X204.47Y-65.64
X205.105Y-84.69
X209.232Y-122.79
X209.867Y-103.74
X213.995Y-84.69
X214.63Y-65.64
X218.757Y-103.74
X219.392Y-122.79
X223.52Y-65.64
X223.52Y-141.84
X224.155Y-84.69
X228.282Y-122.79
X228.917Y-103.74
X233.045Y-84.69
X233.68Y-65.64
X233.68Y-141.84
X237.807Y-103.74
X238.442Y-122.79
X242.57Y-65.64
X242.57Y-141.84
X243.205Y-84.69
X247.332Y-122.79
X247.968Y-103.74
X252.095Y-84.69
X252.73Y-65.64
X252.73Y-141.84
X256.858Y-103.74
X257.493Y-122.79
X261.62Y-65.64
X261.62Y-141.84
X262.255Y-84.69
X267.017Y-103.74
X271.145Y-84.69
X271.78Y-65.64
X271.78Y-141.84
X273.526Y-122.79
X280.67Y-141.84
X281.305Y-84.69
X283.686Y-122.79
X287.814Y-103.74
X290.195Y-65.64
X290.83Y-141.84
X294.957Y-84.69
X297.974Y-103.74
X299.72Y-122.79
X299.72Y-141.84
X300.355Y-65.64
X305.118Y-84.69
X309.88Y-122.79
X309.88Y-141.84
X318.77Y-65.64
X318.77Y-84.69
X318.77Y-103.74
X318.77Y-122.79
X318.77Y-141.84
X328.93Y-65.64
X328.93Y-84.69
X328.93Y-103.74
X328.93Y-122.79
X328.93Y-141.84
T3
X27.5Y-39.725
X27.5Y-151.975
X291.25Y-39.725
X336.5Y-151.975
T4
X38.1Y-115.805
X61.912Y-115.805
X109.537Y-134.855
X209.55Y-134.855
X280.988Y-96.755
X283.369Y-58.655
X304.8Y-96.755
X307.181Y-58.655
T5
X38.1Y-65.64
X38.1Y-131.045
X40.481Y-141.84
X42.862Y-84.69
X45.244Y-103.74
X50.006Y-122.79
X57.15Y-65.64
X61.912Y-131.045
X64.294Y-141.84
X66.675Y-84.69
X71.438Y-103.74
X76.2Y-65.64
X80.962Y-122.79
X85.725Y-84.69
X88.106Y-141.84
X90.487Y-103.74
X95.25Y-65.64
X100.012Y-122.79
X104.775Y-84.69
X109.537Y-103.74
X109.537Y-150.095
X114.3Y-65.64
X119.062Y-122.79
X123.825Y-84.69
X128.588Y-103.74
X133.35Y-65.64
X138.112Y-122.79
X142.875Y-84.69
X147.637Y-103.74
X152.4Y-65.64
X157.162Y-122.79
X159.544Y-141.84
X161.925Y-84.69
X166.688Y-103.74
X171.45Y-65.64
X176.213Y-122.79
X180.975Y-84.69
X185.737Y-103.74
X190.5Y-65.64
X195.262Y-122.79
X200.025Y-84.69
X204.787Y-103.74
X209.55Y-65.64
X209.55Y-150.095
X214.312Y-122.79
X219.075Y-84.69
X223.837Y-103.74
X228.6Y-65.64
X228.6Y-141.84
X233.362Y-122.79
X238.125Y-84.69
X242.887Y-103.74
X247.65Y-65.64
X247.65Y-141.84
X252.412Y-122.79
X257.175Y-84.69
X261.938Y-103.74
X266.7Y-65.64
X266.7Y-141.84
X276.225Y-84.69
X278.606Y-122.79
X280.988Y-111.995
X283.369Y-73.895
X285.75Y-141.84
X292.894Y-103.74
X295.275Y-65.64
X300.037Y-84.69
X304.8Y-111.995
X304.8Y-122.79
X304.8Y-141.84
X307.181Y-73.895
X323.85Y-65.64
X323.85Y-84.69
X323.85Y-103.74
X323.85Y-122.79
X323.85Y-141.84
M30
