%TF.GenerationSoftware,KiCad,Pcbnew,10.0.0*%
%TF.CreationDate,2026-10-01T14:30:43+10:00*%
%TF.ProjectId,keeby,6b656562-792e-46b6-9963-61645f706362,rev?*%
%TF.SameCoordinates,Original*%
%TF.FileFunction,Profile,NP*%
%FSLAX46Y46*%
G04 Gerber Fmt 4.6, Leading zero omitted, Abs format (unit mm)*
G04 Created by KiCad (PCBNEW 10.0.0) date 2026-10-01 14:30:43*
%MOMM*%
%LPD*%
G01*
G04 APERTURE LIST*
%TA.AperFunction,Profile*%
%ADD10C,0.050000*%
%TD*%
%TA.AperFunction,Profile*%
%ADD11C,0.120000*%
%TD*%
G04 APERTURE END LIST*
D10*
X339500000Y-35500000D02*
X339500000Y-155000000D01*
X24500000Y-35500000D02*
X339500000Y-35500000D01*
X339500000Y-155000000D02*
X24500000Y-155000000D01*
X24500000Y-155000000D02*
X24500000Y-35500000D01*
%TO.C,LED1*%
D11*
X297825000Y-48500000D02*
X297825000Y-47799647D01*
X297825000Y-48500000D02*
X297825000Y-49200353D01*
X296125000Y-47000000D02*
X297025353Y-47000000D01*
X296125000Y-47000000D02*
X295224647Y-47000000D01*
X296125000Y-50000000D02*
X297025353Y-50000000D01*
X296125000Y-50000000D02*
X295224647Y-50000000D01*
X294425000Y-48500000D02*
X294425000Y-47799647D01*
X294425000Y-48500000D02*
X294425000Y-49200353D01*
X297825000Y-47799647D02*
G75*
G02*
X297868934Y-47643345I299999J1D01*
G01*
X297181655Y-46956066D02*
G75*
G02*
X297868934Y-47643345I260503J-426776D01*
G01*
X297868934Y-49356655D02*
G75*
G02*
X297825000Y-49200353I256065J156301D01*
G01*
X297868934Y-49356655D02*
G75*
G02*
X297181655Y-50043934I-426776J-260503D01*
G01*
X297025353Y-50000000D02*
G75*
G02*
X297181655Y-50043934I1J-299999D01*
G01*
X297181655Y-46956066D02*
G75*
G02*
X297025353Y-47000000I-156301J256065D01*
G01*
X295068345Y-50043934D02*
G75*
G02*
X295224647Y-49999998I156305J-256066D01*
G01*
X295224647Y-47000000D02*
G75*
G02*
X295068346Y-46956065I3J300000D01*
G01*
X294381066Y-47643345D02*
G75*
G02*
X295068345Y-46956066I426774J260505D01*
G01*
X294381066Y-47643345D02*
G75*
G02*
X294425002Y-47799647I-256066J-156305D01*
G01*
X295068345Y-50043934D02*
G75*
G02*
X294381066Y-49356655I-260503J426776D01*
G01*
X294425000Y-49200353D02*
G75*
G02*
X294381087Y-49356668I-300000J-47D01*
G01*
%TO.C,LED2*%
X294400000Y-54500353D02*
G75*
G02*
X294356087Y-54656668I-300000J-47D01*
G01*
X295043345Y-55343934D02*
G75*
G02*
X294356066Y-54656655I-260503J426776D01*
G01*
X294356066Y-52943345D02*
G75*
G02*
X294400002Y-53099647I-256066J-156305D01*
G01*
X294356066Y-52943345D02*
G75*
G02*
X295043345Y-52256066I426774J260505D01*
G01*
X295199647Y-52300000D02*
G75*
G02*
X295043346Y-52256065I3J300000D01*
G01*
X295043345Y-55343934D02*
G75*
G02*
X295199647Y-55299998I156305J-256066D01*
G01*
X297156655Y-52256066D02*
G75*
G02*
X297000353Y-52300000I-156301J256065D01*
G01*
X297000353Y-55300000D02*
G75*
G02*
X297156655Y-55343934I1J-299999D01*
G01*
X297843934Y-54656655D02*
G75*
G02*
X297156655Y-55343934I-426776J-260503D01*
G01*
X297843934Y-54656655D02*
G75*
G02*
X297800000Y-54500353I256065J156301D01*
G01*
X297156655Y-52256066D02*
G75*
G02*
X297843934Y-52943345I260503J-426776D01*
G01*
X297800000Y-53099647D02*
G75*
G02*
X297843934Y-52943345I299999J1D01*
G01*
X294400000Y-53800000D02*
X294400000Y-54500353D01*
X294400000Y-53800000D02*
X294400000Y-53099647D01*
X296100000Y-55300000D02*
X295199647Y-55300000D01*
X296100000Y-55300000D02*
X297000353Y-55300000D01*
X296100000Y-52300000D02*
X295199647Y-52300000D01*
X296100000Y-52300000D02*
X297000353Y-52300000D01*
X297800000Y-53800000D02*
X297800000Y-54500353D01*
X297800000Y-53800000D02*
X297800000Y-53099647D01*
%TD*%
M02*
