M48
; DRILL file KiCad 10.0.0 date 2026-10-01T13:48:54
; FORMAT={-:-/ absolute / metric / decimal}
; #@! TF.CreationDate,2026-10-01T13:48:54+10:00
; #@! TF.GenerationSoftware,Kicad,Pcbnew,10.0.0
; #@! TF.FileFunction,Plated,1,2,PTH
FMAT,2
METRIC
; #@! TA.AperFunction,Plated,PTH,ComponentDrill
T1C0.800
; #@! TA.AperFunction,Plated,PTH,ComponentDrill
T2C1.000
; #@! TA.AperFunction,Plated,PTH,ComponentDrill
T3C1.500
; #@! TA.AperFunction,Plated,PTH,ComponentDrill
T4C1.524
; #@! TA.AperFunction,Plated,PTH,ComponentDrill
T5C1.800
%
G90
G05
T1
X46.288Y-65.27
X46.288Y-72.89
X48.669Y-141.47
X48.669Y-149.09
X51.05Y-84.32
X51.05Y-91.94
X53.431Y-103.37
X53.431Y-110.99
X58.194Y-122.42
X58.194Y-130.04
X65.337Y-65.27
X65.337Y-72.89
X72.481Y-141.47
X72.481Y-149.09
X74.862Y-84.32
X74.862Y-91.94
X79.625Y-103.37
X79.625Y-110.99
X84.388Y-65.27
X84.388Y-72.89
X89.15Y-122.42
X89.15Y-130.04
X93.912Y-84.32
X93.912Y-91.94
X96.294Y-141.47
X96.294Y-149.09
X98.675Y-103.37
X98.675Y-110.99
X103.438Y-65.27
X103.438Y-72.89
X108.2Y-122.42
X108.2Y-130.04
X112.962Y-84.32
X112.962Y-91.94
X117.725Y-103.37
X117.725Y-110.99
X122.487Y-65.27
X122.487Y-72.89
X127.25Y-122.42
X127.25Y-130.04
X132.012Y-84.32
X132.012Y-91.94
X136.775Y-103.37
X136.775Y-110.99
X141.537Y-65.27
X141.537Y-72.89
X146.3Y-122.42
X146.3Y-130.04
X151.062Y-84.32
X151.062Y-91.94
X155.825Y-103.37
X155.825Y-110.99
X160.588Y-65.27
X160.588Y-72.89
X165.35Y-122.42
X165.35Y-130.04
X167.731Y-141.47
X167.731Y-149.09
X170.112Y-84.32
X170.112Y-91.94
X174.875Y-103.37
X174.875Y-110.99
X179.637Y-65.27
X179.637Y-72.89
X184.4Y-122.42
X184.4Y-130.04
X189.162Y-84.32
X189.162Y-91.94
X193.925Y-103.37
X193.925Y-110.99
X198.688Y-65.27
X198.688Y-72.89
X203.45Y-122.42
X203.45Y-130.04
X208.212Y-84.32
X208.212Y-91.94
X212.975Y-103.37
X212.975Y-110.99
X217.737Y-65.27
X217.737Y-72.89
X222.5Y-122.42
X222.5Y-130.04
X227.262Y-84.32
X227.262Y-91.94
X232.025Y-103.37
X232.025Y-110.99
X236.787Y-65.27
X236.787Y-72.89
X236.787Y-141.47
X236.787Y-149.09
X241.55Y-122.42
X241.55Y-130.04
X246.312Y-84.32
X246.312Y-91.94
X250.76Y-41.75
X250.76Y-49.37
X251.075Y-103.37
X251.075Y-110.99
X253.3Y-41.75
X253.3Y-49.37
X255.837Y-65.27
X255.837Y-72.89
X255.837Y-141.47
X255.837Y-149.09
X255.84Y-41.75
X255.84Y-49.37
X258.38Y-41.75
X258.38Y-49.37
X260.6Y-122.42
X260.6Y-130.04
X260.92Y-41.75
X260.92Y-49.37
X263.46Y-41.75
X263.46Y-49.37
X265.363Y-84.32
X265.363Y-91.94
X266.0Y-41.75
X266.0Y-49.37
X268.54Y-41.75
X268.54Y-49.37
X270.125Y-103.37
X270.125Y-110.99
X271.08Y-41.75
X271.08Y-49.37
X273.62Y-41.75
X273.62Y-49.37
X274.887Y-65.27
X274.887Y-72.89
X274.887Y-141.47
X274.887Y-149.09
X276.16Y-41.75
X276.16Y-49.37
X278.7Y-41.75
X278.7Y-49.37
X281.24Y-41.75
X281.24Y-49.37
X283.78Y-41.75
X283.78Y-49.37
X284.412Y-84.32
X284.412Y-91.94
X286.794Y-122.42
X286.794Y-130.04
X293.938Y-141.47
X293.938Y-149.09
X301.081Y-103.37
X301.081Y-110.99
X303.462Y-65.27
X303.462Y-72.89
X308.225Y-84.32
X308.225Y-91.94
X312.988Y-122.42
X312.988Y-130.04
X312.988Y-141.47
X312.988Y-149.09
X332.037Y-65.27
X332.037Y-72.89
X332.037Y-84.32
X332.037Y-91.94
X332.037Y-103.37
X332.037Y-110.99
X332.037Y-122.42
X332.037Y-130.04
X332.037Y-141.47
X332.037Y-149.09
T2
X42.35Y-45.422
X42.35Y-50.422
X56.85Y-45.422
X56.85Y-47.922
X56.85Y-50.422
X307.7Y-37.15
X307.7Y-52.39
X310.24Y-37.15
X310.24Y-52.39
X310.794Y-40.223
X310.794Y-42.763
X310.794Y-45.303
X312.78Y-37.15
X312.78Y-52.39
X315.32Y-37.15
X315.32Y-52.39
X317.86Y-37.15
X317.86Y-52.39
X320.4Y-37.15
X320.4Y-52.39
X322.94Y-37.15
X322.94Y-52.39
X325.48Y-37.15
X325.48Y-52.39
X328.02Y-37.15
X328.02Y-52.39
X330.56Y-37.15
X330.56Y-52.39
X333.1Y-37.15
X333.1Y-52.39
X335.64Y-37.15
X335.64Y-52.39
X338.18Y-37.15
X338.18Y-52.39
T4
X34.29Y-63.1
X36.671Y-139.3
X39.052Y-82.15
X40.64Y-60.56
X41.434Y-101.2
X43.021Y-136.76
X45.402Y-79.61
X46.196Y-120.25
X47.784Y-98.66
X52.546Y-117.71
X53.34Y-63.1
X59.69Y-60.56
X60.484Y-139.3
X62.865Y-82.15
X66.834Y-136.76
X67.627Y-101.2
X69.215Y-79.61
X72.39Y-63.1
X73.977Y-98.66
X77.153Y-120.25
X78.74Y-60.56
X81.915Y-82.15
X83.502Y-117.71
X84.296Y-139.3
X86.677Y-101.2
X88.265Y-79.61
X90.646Y-136.76
X91.44Y-63.1
X93.027Y-98.66
X96.203Y-120.25
X97.79Y-60.56
X100.965Y-82.15
X102.552Y-117.71
X105.727Y-101.2
X107.315Y-79.61
X110.49Y-63.1
X112.078Y-98.66
X115.252Y-120.25
X116.84Y-60.56
X120.015Y-82.15
X121.602Y-117.71
X124.777Y-101.2
X126.365Y-79.61
X129.54Y-63.1
X131.127Y-98.66
X134.302Y-120.25
X135.89Y-60.56
X139.065Y-82.15
X140.653Y-117.71
X143.827Y-101.2
X145.415Y-79.61
X148.59Y-63.1
X150.177Y-98.66
X153.352Y-120.25
X154.94Y-60.56
X155.734Y-139.3
X158.115Y-82.15
X159.702Y-117.71
X162.084Y-136.76
X162.877Y-101.2
X164.465Y-79.61
X167.64Y-63.1
X169.227Y-98.66
X172.403Y-120.25
X173.99Y-60.56
X177.165Y-82.15
X178.752Y-117.71
X181.927Y-101.2
X183.515Y-79.61
X186.69Y-63.1
X188.278Y-98.66
X191.452Y-120.25
X193.04Y-60.56
X196.215Y-82.15
X197.802Y-117.71
X200.977Y-101.2
X202.565Y-79.61
X205.74Y-63.1
X207.327Y-98.66
X210.502Y-120.25
X212.09Y-60.56
X215.265Y-82.15
X216.852Y-117.71
X220.028Y-101.2
X221.615Y-79.61
X224.79Y-63.1
X224.79Y-139.3
X226.377Y-98.66
X229.552Y-120.25
X231.14Y-60.56
X231.14Y-136.76
X234.315Y-82.15
X235.903Y-117.71
X239.077Y-101.2
X240.665Y-79.61
X243.84Y-63.1
X243.84Y-139.3
X245.427Y-98.66
X248.602Y-120.25
X250.19Y-60.56
X250.19Y-136.76
X253.365Y-82.15
X254.952Y-117.71
X258.127Y-101.2
X259.715Y-79.61
X262.89Y-63.1
X262.89Y-139.3
X264.477Y-98.66
X269.24Y-60.56
X269.24Y-136.76
X272.415Y-82.15
X274.796Y-120.25
X278.765Y-79.61
X281.146Y-117.71
X281.94Y-139.3
X288.29Y-136.76
X289.084Y-101.2
X291.465Y-63.1
X295.434Y-98.66
X296.227Y-82.15
X297.815Y-60.56
X300.99Y-120.25
X300.99Y-139.3
X302.577Y-79.61
X307.34Y-117.71
X307.34Y-136.76
X320.04Y-63.1
X320.04Y-82.15
X320.04Y-101.2
X320.04Y-120.25
X320.04Y-139.3
X326.39Y-60.56
X326.39Y-79.61
X326.39Y-98.66
X326.39Y-117.71
X326.39Y-136.76
T5
X61.368Y-38.9
X80.55Y-38.072
T3
G00X50.0Y-42.322
M15
G01X48.7Y-42.322
M16
G05
G00X50.0Y-53.522
M15
G01X48.7Y-53.522
M16
G05
M30
