%TF.GenerationSoftware,KiCad,Pcbnew,10.0.0*%
%TF.CreationDate,2026-10-01T14:30:43+10:00*%
%TF.ProjectId,keeby,6b656562-792e-46b6-9963-61645f706362,rev?*%
%TF.SameCoordinates,Original*%
%TF.FileFunction,Soldermask,Bot*%
%TF.FilePolarity,Negative*%
%FSLAX46Y46*%
G04 Gerber Fmt 4.6, Leading zero omitted, Abs format (unit mm)*
G04 Created by KiCad (PCBNEW 10.0.0) date 2026-10-01 14:30:43*
%MOMM*%
%LPD*%
G01*
G04 APERTURE LIST*
G04 Aperture macros list*
%AMRoundRect*
0 Rectangle with rounded corners*
0 $1 Rounding radius*
0 $2 $3 $4 $5 $6 $7 $8 $9 X,Y pos of 4 corners*
0 Add a 4 corners polygon primitive as box body*
4,1,4,$2,$3,$4,$5,$6,$7,$8,$9,$2,$3,0*
0 Add four circle primitives for the rounded corners*
1,1,$1+$1,$2,$3*
1,1,$1+$1,$4,$5*
1,1,$1+$1,$6,$7*
1,1,$1+$1,$8,$9*
0 Add four rect primitives between the rounded corners*
20,1,$1+$1,$2,$3,$4,$5,0*
20,1,$1+$1,$4,$5,$6,$7,0*
20,1,$1+$1,$6,$7,$8,$9,0*
20,1,$1+$1,$8,$9,$2,$3,0*%
G04 Aperture macros list end*
%ADD10C,1.600000*%
%ADD11RoundRect,0.250000X-0.550000X0.550000X-0.550000X-0.550000X0.550000X-0.550000X0.550000X0.550000X0*%
%ADD12C,2.300000*%
%ADD13C,1.750000*%
%ADD14C,3.987800*%
%ADD15C,3.048000*%
%ADD16C,2.800000*%
%ADD17C,2.200000*%
%ADD18C,2.000000*%
%ADD19RoundRect,0.550000X1.150000X0.550000X-1.150000X0.550000X-1.150000X-0.550000X1.150000X-0.550000X0*%
%ADD20RoundRect,0.500000X0.500000X0.500000X-0.500000X0.500000X-0.500000X-0.500000X0.500000X-0.500000X0*%
%ADD21C,1.800000*%
%ADD22RoundRect,0.450000X-0.450000X0.450000X-0.450000X-0.450000X0.450000X-0.450000X0.450000X0.450000X0*%
%ADD23O,4.340000X1.800000*%
%ADD24RoundRect,0.250000X0.550000X-0.550000X0.550000X0.550000X-0.550000X0.550000X-0.550000X-0.550000X0*%
%ADD25C,0.850000*%
%ADD26RoundRect,0.205000X0.470000X0.205000X-0.470000X0.205000X-0.470000X-0.205000X0.470000X-0.205000X0*%
G04 APERTURE END LIST*
D10*
%TO.C,U2*%
X283780000Y-49370000D03*
X281240000Y-49370000D03*
X278700000Y-49370000D03*
X276160000Y-49370000D03*
X273620000Y-49370000D03*
X271080000Y-49370000D03*
X268540000Y-49370000D03*
X266000000Y-49370000D03*
X263460000Y-49370000D03*
X260920000Y-49370000D03*
X258380000Y-49370000D03*
X255840000Y-49370000D03*
X253300000Y-49370000D03*
X250760000Y-49370000D03*
X250760000Y-41750000D03*
X253300000Y-41750000D03*
X255840000Y-41750000D03*
X258380000Y-41750000D03*
X260920000Y-41750000D03*
X263460000Y-41750000D03*
X266000000Y-41750000D03*
X268540000Y-41750000D03*
X271080000Y-41750000D03*
X273620000Y-41750000D03*
X276160000Y-41750000D03*
X278700000Y-41750000D03*
X281240000Y-41750000D03*
D11*
X283780000Y-41750000D03*
%TD*%
D12*
%TO.C,SW68*%
X326390000Y-136760000D03*
X320040000Y-139300000D03*
D13*
X328930000Y-141840000D03*
D14*
X323850000Y-141840000D03*
D13*
X318770000Y-141840000D03*
%TD*%
D12*
%TO.C,SW67*%
X307340000Y-136760000D03*
X300990000Y-139300000D03*
D13*
X309880000Y-141840000D03*
D14*
X304800000Y-141840000D03*
D13*
X299720000Y-141840000D03*
%TD*%
D12*
%TO.C,SW66*%
X288290000Y-136760000D03*
X281940000Y-139300000D03*
D13*
X290830000Y-141840000D03*
D14*
X285750000Y-141840000D03*
D13*
X280670000Y-141840000D03*
%TD*%
D12*
%TO.C,SW65*%
X269240000Y-136760000D03*
X262890000Y-139300000D03*
D13*
X271780000Y-141840000D03*
D14*
X266700000Y-141840000D03*
D13*
X261620000Y-141840000D03*
%TD*%
D12*
%TO.C,SW64*%
X250190000Y-136760000D03*
X243840000Y-139300000D03*
D13*
X252730000Y-141840000D03*
D14*
X247650000Y-141840000D03*
D13*
X242570000Y-141840000D03*
%TD*%
D12*
%TO.C,SW63*%
X231140000Y-136760000D03*
X224790000Y-139300000D03*
D13*
X233680000Y-141840000D03*
D14*
X228600000Y-141840000D03*
D13*
X223520000Y-141840000D03*
%TD*%
D12*
%TO.C,SW62*%
X162083750Y-136760000D03*
X155733750Y-139300000D03*
D13*
X164623750Y-141840000D03*
D14*
X159543750Y-141840000D03*
D13*
X154463750Y-141840000D03*
%TD*%
D12*
%TO.C,SW61*%
X90646250Y-136760000D03*
X84296250Y-139300000D03*
D13*
X93186250Y-141840000D03*
D14*
X88106250Y-141840000D03*
D13*
X83026250Y-141840000D03*
%TD*%
D12*
%TO.C,SW60*%
X66833750Y-136760000D03*
X60483750Y-139300000D03*
D13*
X69373750Y-141840000D03*
D14*
X64293750Y-141840000D03*
D13*
X59213750Y-141840000D03*
%TD*%
D12*
%TO.C,SW59*%
X43021250Y-136760000D03*
X36671250Y-139300000D03*
D13*
X45561250Y-141840000D03*
D14*
X40481250Y-141840000D03*
D13*
X35401250Y-141840000D03*
%TD*%
D12*
%TO.C,SW58*%
X326390000Y-117710000D03*
X320040000Y-120250000D03*
D13*
X328930000Y-122790000D03*
D14*
X323850000Y-122790000D03*
D13*
X318770000Y-122790000D03*
%TD*%
D12*
%TO.C,SW57*%
X307340000Y-117710000D03*
X300990000Y-120250000D03*
D13*
X309880000Y-122790000D03*
D14*
X304800000Y-122790000D03*
D13*
X299720000Y-122790000D03*
%TD*%
D12*
%TO.C,SW56*%
X281146250Y-117710000D03*
X274796250Y-120250000D03*
D13*
X283686250Y-122790000D03*
D14*
X278606250Y-122790000D03*
D13*
X273526250Y-122790000D03*
%TD*%
D12*
%TO.C,SW55*%
X254952500Y-117710000D03*
X248602500Y-120250000D03*
D13*
X257492500Y-122790000D03*
D14*
X252412500Y-122790000D03*
D13*
X247332500Y-122790000D03*
%TD*%
D12*
%TO.C,SW54*%
X235902500Y-117710000D03*
X229552500Y-120250000D03*
D13*
X238442500Y-122790000D03*
D14*
X233362500Y-122790000D03*
D13*
X228282500Y-122790000D03*
%TD*%
D12*
%TO.C,SW53*%
X216852500Y-117710000D03*
X210502500Y-120250000D03*
D13*
X219392500Y-122790000D03*
D14*
X214312500Y-122790000D03*
D13*
X209232500Y-122790000D03*
%TD*%
D12*
%TO.C,SW52*%
X197802500Y-117710000D03*
X191452500Y-120250000D03*
D13*
X200342500Y-122790000D03*
D14*
X195262500Y-122790000D03*
D13*
X190182500Y-122790000D03*
%TD*%
D12*
%TO.C,SW51*%
X178752500Y-117710000D03*
X172402500Y-120250000D03*
D13*
X181292500Y-122790000D03*
D14*
X176212500Y-122790000D03*
D13*
X171132500Y-122790000D03*
%TD*%
D12*
%TO.C,SW50*%
X159702500Y-117710000D03*
X153352500Y-120250000D03*
D13*
X162242500Y-122790000D03*
D14*
X157162500Y-122790000D03*
D13*
X152082500Y-122790000D03*
%TD*%
D12*
%TO.C,SW49*%
X140652500Y-117710000D03*
X134302500Y-120250000D03*
D13*
X143192500Y-122790000D03*
D14*
X138112500Y-122790000D03*
D13*
X133032500Y-122790000D03*
%TD*%
D12*
%TO.C,SW48*%
X121602500Y-117710000D03*
X115252500Y-120250000D03*
D13*
X124142500Y-122790000D03*
D14*
X119062500Y-122790000D03*
D13*
X113982500Y-122790000D03*
%TD*%
D12*
%TO.C,SW47*%
X102552500Y-117710000D03*
X96202500Y-120250000D03*
D13*
X105092500Y-122790000D03*
D14*
X100012500Y-122790000D03*
D13*
X94932500Y-122790000D03*
%TD*%
D12*
%TO.C,SW46*%
X83502500Y-117710000D03*
X77152500Y-120250000D03*
D13*
X86042500Y-122790000D03*
D14*
X80962500Y-122790000D03*
D13*
X75882500Y-122790000D03*
%TD*%
D12*
%TO.C,SW45*%
X52546250Y-117710000D03*
X46196250Y-120250000D03*
D13*
X55086250Y-122790000D03*
D14*
X50006250Y-122790000D03*
D13*
X44926250Y-122790000D03*
%TD*%
D12*
%TO.C,SW44*%
X326390000Y-98660000D03*
X320040000Y-101200000D03*
D13*
X328930000Y-103740000D03*
D14*
X323850000Y-103740000D03*
D13*
X318770000Y-103740000D03*
%TD*%
D12*
%TO.C,SW43*%
X295433750Y-98660000D03*
X289083750Y-101200000D03*
D13*
X297973750Y-103740000D03*
D14*
X292893750Y-103740000D03*
D13*
X287813750Y-103740000D03*
%TD*%
D12*
%TO.C,SW42*%
X264477500Y-98660000D03*
X258127500Y-101200000D03*
D13*
X267017500Y-103740000D03*
D14*
X261937500Y-103740000D03*
D13*
X256857500Y-103740000D03*
%TD*%
D12*
%TO.C,SW41*%
X245427500Y-98660000D03*
X239077500Y-101200000D03*
D13*
X247967500Y-103740000D03*
D14*
X242887500Y-103740000D03*
D13*
X237807500Y-103740000D03*
%TD*%
D12*
%TO.C,SW40*%
X226377500Y-98660000D03*
X220027500Y-101200000D03*
D13*
X228917500Y-103740000D03*
D14*
X223837500Y-103740000D03*
D13*
X218757500Y-103740000D03*
%TD*%
D12*
%TO.C,SW39*%
X207327500Y-98660000D03*
X200977500Y-101200000D03*
D13*
X209867500Y-103740000D03*
D14*
X204787500Y-103740000D03*
D13*
X199707500Y-103740000D03*
%TD*%
D12*
%TO.C,SW38*%
X188277500Y-98660000D03*
X181927500Y-101200000D03*
D13*
X190817500Y-103740000D03*
D14*
X185737500Y-103740000D03*
D13*
X180657500Y-103740000D03*
%TD*%
D12*
%TO.C,SW37*%
X169227500Y-98660000D03*
X162877500Y-101200000D03*
D13*
X171767500Y-103740000D03*
D14*
X166687500Y-103740000D03*
D13*
X161607500Y-103740000D03*
%TD*%
D12*
%TO.C,SW36*%
X150177500Y-98660000D03*
X143827500Y-101200000D03*
D13*
X152717500Y-103740000D03*
D14*
X147637500Y-103740000D03*
D13*
X142557500Y-103740000D03*
%TD*%
D12*
%TO.C,SW35*%
X131127500Y-98660000D03*
X124777500Y-101200000D03*
D13*
X133667500Y-103740000D03*
D14*
X128587500Y-103740000D03*
D13*
X123507500Y-103740000D03*
%TD*%
D12*
%TO.C,SW34*%
X112077500Y-98660000D03*
X105727500Y-101200000D03*
D13*
X114617500Y-103740000D03*
D14*
X109537500Y-103740000D03*
D13*
X104457500Y-103740000D03*
%TD*%
D12*
%TO.C,SW33*%
X93027500Y-98660000D03*
X86677500Y-101200000D03*
D13*
X95567500Y-103740000D03*
D14*
X90487500Y-103740000D03*
D13*
X85407500Y-103740000D03*
%TD*%
D12*
%TO.C,SW32*%
X73977500Y-98660000D03*
X67627500Y-101200000D03*
D13*
X76517500Y-103740000D03*
D14*
X71437500Y-103740000D03*
D13*
X66357500Y-103740000D03*
%TD*%
D12*
%TO.C,SW31*%
X47783750Y-98660000D03*
X41433750Y-101200000D03*
D13*
X50323750Y-103740000D03*
D14*
X45243750Y-103740000D03*
D13*
X40163750Y-103740000D03*
%TD*%
D12*
%TO.C,SW30*%
X326390000Y-79610000D03*
X320040000Y-82150000D03*
D13*
X328930000Y-84690000D03*
D14*
X323850000Y-84690000D03*
D13*
X318770000Y-84690000D03*
%TD*%
D12*
%TO.C,SW29*%
X302577500Y-79610000D03*
X296227500Y-82150000D03*
D13*
X305117500Y-84690000D03*
D14*
X300037500Y-84690000D03*
D13*
X294957500Y-84690000D03*
%TD*%
D12*
%TO.C,SW28*%
X278765000Y-79610000D03*
X272415000Y-82150000D03*
D13*
X281305000Y-84690000D03*
D14*
X276225000Y-84690000D03*
D13*
X271145000Y-84690000D03*
%TD*%
D12*
%TO.C,SW27*%
X259715000Y-79610000D03*
X253365000Y-82150000D03*
D13*
X262255000Y-84690000D03*
D14*
X257175000Y-84690000D03*
D13*
X252095000Y-84690000D03*
%TD*%
D12*
%TO.C,SW26*%
X240665000Y-79610000D03*
X234315000Y-82150000D03*
D13*
X243205000Y-84690000D03*
D14*
X238125000Y-84690000D03*
D13*
X233045000Y-84690000D03*
%TD*%
D12*
%TO.C,SW25*%
X221615000Y-79610000D03*
X215265000Y-82150000D03*
D13*
X224155000Y-84690000D03*
D14*
X219075000Y-84690000D03*
D13*
X213995000Y-84690000D03*
%TD*%
D12*
%TO.C,SW24*%
X202565000Y-79610000D03*
X196215000Y-82150000D03*
D13*
X205105000Y-84690000D03*
D14*
X200025000Y-84690000D03*
D13*
X194945000Y-84690000D03*
%TD*%
D12*
%TO.C,SW23*%
X183515000Y-79610000D03*
X177165000Y-82150000D03*
D13*
X186055000Y-84690000D03*
D14*
X180975000Y-84690000D03*
D13*
X175895000Y-84690000D03*
%TD*%
D12*
%TO.C,SW22*%
X164465000Y-79610000D03*
X158115000Y-82150000D03*
D13*
X167005000Y-84690000D03*
D14*
X161925000Y-84690000D03*
D13*
X156845000Y-84690000D03*
%TD*%
D12*
%TO.C,SW21*%
X145415000Y-79610000D03*
X139065000Y-82150000D03*
D13*
X147955000Y-84690000D03*
D14*
X142875000Y-84690000D03*
D13*
X137795000Y-84690000D03*
%TD*%
D12*
%TO.C,SW20*%
X126365000Y-79610000D03*
X120015000Y-82150000D03*
D13*
X128905000Y-84690000D03*
D14*
X123825000Y-84690000D03*
D13*
X118745000Y-84690000D03*
%TD*%
D12*
%TO.C,SW19*%
X107315000Y-79610000D03*
X100965000Y-82150000D03*
D13*
X109855000Y-84690000D03*
D14*
X104775000Y-84690000D03*
D13*
X99695000Y-84690000D03*
%TD*%
D12*
%TO.C,SW18*%
X88265000Y-79610000D03*
X81915000Y-82150000D03*
D13*
X90805000Y-84690000D03*
D14*
X85725000Y-84690000D03*
D13*
X80645000Y-84690000D03*
%TD*%
D12*
%TO.C,SW17*%
X69215000Y-79610000D03*
X62865000Y-82150000D03*
D13*
X71755000Y-84690000D03*
D14*
X66675000Y-84690000D03*
D13*
X61595000Y-84690000D03*
%TD*%
D12*
%TO.C,SW16*%
X45402500Y-79610000D03*
X39052500Y-82150000D03*
D13*
X47942500Y-84690000D03*
D14*
X42862500Y-84690000D03*
D13*
X37782500Y-84690000D03*
%TD*%
D12*
%TO.C,SW15*%
X326390000Y-60560000D03*
X320040000Y-63100000D03*
D13*
X328930000Y-65640000D03*
D14*
X323850000Y-65640000D03*
D13*
X318770000Y-65640000D03*
%TD*%
D12*
%TO.C,SW14*%
X297815000Y-60560000D03*
X291465000Y-63100000D03*
D13*
X300355000Y-65640000D03*
D14*
X295275000Y-65640000D03*
D13*
X290195000Y-65640000D03*
%TD*%
D12*
%TO.C,SW13*%
X269240000Y-60560000D03*
X262890000Y-63100000D03*
D13*
X271780000Y-65640000D03*
D14*
X266700000Y-65640000D03*
D13*
X261620000Y-65640000D03*
%TD*%
D12*
%TO.C,SW12*%
X250190000Y-60560000D03*
X243840000Y-63100000D03*
D13*
X252730000Y-65640000D03*
D14*
X247650000Y-65640000D03*
D13*
X242570000Y-65640000D03*
%TD*%
D12*
%TO.C,SW11*%
X231140000Y-60560000D03*
X224790000Y-63100000D03*
D13*
X233680000Y-65640000D03*
D14*
X228600000Y-65640000D03*
D13*
X223520000Y-65640000D03*
%TD*%
D12*
%TO.C,SW10*%
X212090000Y-60560000D03*
X205740000Y-63100000D03*
D13*
X214630000Y-65640000D03*
D14*
X209550000Y-65640000D03*
D13*
X204470000Y-65640000D03*
%TD*%
D12*
%TO.C,SW9*%
X193040000Y-60560000D03*
X186690000Y-63100000D03*
D13*
X195580000Y-65640000D03*
D14*
X190500000Y-65640000D03*
D13*
X185420000Y-65640000D03*
%TD*%
D12*
%TO.C,SW8*%
X173990000Y-60560000D03*
X167640000Y-63100000D03*
D13*
X176530000Y-65640000D03*
D14*
X171450000Y-65640000D03*
D13*
X166370000Y-65640000D03*
%TD*%
D12*
%TO.C,SW7*%
X154940000Y-60560000D03*
X148590000Y-63100000D03*
D13*
X157480000Y-65640000D03*
D14*
X152400000Y-65640000D03*
D13*
X147320000Y-65640000D03*
%TD*%
D12*
%TO.C,SW6*%
X135890000Y-60560000D03*
X129540000Y-63100000D03*
D13*
X138430000Y-65640000D03*
D14*
X133350000Y-65640000D03*
D13*
X128270000Y-65640000D03*
%TD*%
D12*
%TO.C,SW5*%
X116840000Y-60560000D03*
X110490000Y-63100000D03*
D13*
X119380000Y-65640000D03*
D14*
X114300000Y-65640000D03*
D13*
X109220000Y-65640000D03*
%TD*%
D12*
%TO.C,SW4*%
X97790000Y-60560000D03*
X91440000Y-63100000D03*
D13*
X100330000Y-65640000D03*
D14*
X95250000Y-65640000D03*
D13*
X90170000Y-65640000D03*
%TD*%
D12*
%TO.C,SW3*%
X78740000Y-60560000D03*
X72390000Y-63100000D03*
D13*
X81280000Y-65640000D03*
D14*
X76200000Y-65640000D03*
D13*
X71120000Y-65640000D03*
%TD*%
D12*
%TO.C,SW2*%
X59690000Y-60560000D03*
X53340000Y-63100000D03*
D13*
X62230000Y-65640000D03*
D14*
X57150000Y-65640000D03*
D13*
X52070000Y-65640000D03*
%TD*%
D12*
%TO.C,SW1*%
X40640000Y-60560000D03*
X34290000Y-63100000D03*
D13*
X43180000Y-65640000D03*
D14*
X38100000Y-65640000D03*
D13*
X33020000Y-65640000D03*
%TD*%
D14*
%TO.C,S4*%
X209550000Y-150095000D03*
D15*
X209550000Y-134855000D03*
D14*
X109537500Y-150095000D03*
D15*
X109537500Y-134855000D03*
%TD*%
D14*
%TO.C,S3*%
X61912500Y-131045000D03*
D15*
X61912500Y-115805000D03*
D14*
X38100000Y-131045000D03*
D15*
X38100000Y-115805000D03*
%TD*%
D14*
%TO.C,S2*%
X307181250Y-73895000D03*
D15*
X307181250Y-58655000D03*
D14*
X283368750Y-73895000D03*
D15*
X283368750Y-58655000D03*
%TD*%
D14*
%TO.C,S1*%
X304800000Y-111995000D03*
D15*
X304800000Y-96755000D03*
D14*
X280987500Y-111995000D03*
D15*
X280987500Y-96755000D03*
%TD*%
D16*
%TO.C,JS1*%
X80550000Y-38071572D03*
X61367881Y-38900000D03*
%TD*%
D17*
%TO.C,H4*%
X336500000Y-151975000D03*
%TD*%
%TO.C,H3*%
X27500000Y-151975000D03*
%TD*%
%TO.C,H2*%
X291250000Y-39725000D03*
%TD*%
%TO.C,H1*%
X27500000Y-39725000D03*
%TD*%
D18*
%TO.C,EC1*%
X42350000Y-50422056D03*
X42350000Y-45422056D03*
D19*
X49350000Y-42322056D03*
X49350000Y-53522056D03*
D20*
X56850000Y-47922056D03*
D18*
X56850000Y-45422056D03*
X56850000Y-50422056D03*
%TD*%
D21*
%TO.C,U1*%
X338180000Y-52390000D03*
D22*
X338180000Y-37150000D03*
D21*
X310793720Y-45303400D03*
X310793720Y-42763400D03*
X310793720Y-40223400D03*
X307700000Y-52390000D03*
X310240000Y-52390000D03*
X312780000Y-52390000D03*
X315320000Y-52390000D03*
X317860000Y-52390000D03*
X320400000Y-52390000D03*
X322940000Y-52390000D03*
X325480000Y-52390000D03*
X328020000Y-52390000D03*
X330560000Y-52390000D03*
D22*
X333100000Y-52390000D03*
D23*
X336910000Y-52390000D03*
D21*
X307700000Y-37150000D03*
X310240000Y-37150000D03*
X312780000Y-37150000D03*
X315320000Y-37150000D03*
X317860000Y-37150000D03*
X320400000Y-37150000D03*
X322940000Y-37150000D03*
X325480000Y-37150000D03*
D22*
X328020000Y-37150000D03*
X330560000Y-37150000D03*
D21*
X333100000Y-37150000D03*
X335640000Y-37150000D03*
%TD*%
D24*
%TO.C,D47*%
X58193750Y-130040000D03*
D10*
X58193750Y-122420000D03*
%TD*%
%TO.C,D30*%
X332037500Y-84320000D03*
D24*
X332037500Y-91940000D03*
%TD*%
D10*
%TO.C,D29*%
X308225000Y-84320000D03*
D24*
X308225000Y-91940000D03*
%TD*%
D10*
%TO.C,D28*%
X284412500Y-84320000D03*
D24*
X284412500Y-91940000D03*
%TD*%
D10*
%TO.C,D27*%
X265362500Y-84320000D03*
D24*
X265362500Y-91940000D03*
%TD*%
D10*
%TO.C,D26*%
X246312500Y-84320000D03*
D24*
X246312500Y-91940000D03*
%TD*%
D10*
%TO.C,D25*%
X227262500Y-84320000D03*
D24*
X227262500Y-91940000D03*
%TD*%
D10*
%TO.C,D24*%
X208212500Y-84320000D03*
D24*
X208212500Y-91940000D03*
%TD*%
D10*
%TO.C,D23*%
X189162500Y-84320000D03*
D24*
X189162500Y-91940000D03*
%TD*%
D10*
%TO.C,D22*%
X170112500Y-84320000D03*
D24*
X170112500Y-91940000D03*
%TD*%
D10*
%TO.C,D21*%
X151062500Y-84320000D03*
D24*
X151062500Y-91940000D03*
%TD*%
D10*
%TO.C,D20*%
X132012500Y-84320000D03*
D24*
X132012500Y-91940000D03*
%TD*%
D10*
%TO.C,D19*%
X112962500Y-84320000D03*
D24*
X112962500Y-91940000D03*
%TD*%
D10*
%TO.C,D18*%
X93912500Y-84320000D03*
D24*
X93912500Y-91940000D03*
%TD*%
D10*
%TO.C,D17*%
X74862500Y-84320000D03*
D24*
X74862500Y-91940000D03*
%TD*%
D10*
%TO.C,D16*%
X51050000Y-84320000D03*
D24*
X51050000Y-91940000D03*
%TD*%
%TO.C,D15*%
X332037500Y-72890000D03*
D10*
X332037500Y-65270000D03*
%TD*%
%TO.C,D14*%
X303462500Y-65270000D03*
D24*
X303462500Y-72890000D03*
%TD*%
D10*
%TO.C,D13*%
X274887500Y-65270000D03*
D24*
X274887500Y-72890000D03*
%TD*%
D10*
%TO.C,D12*%
X255837500Y-65270000D03*
D24*
X255837500Y-72890000D03*
%TD*%
D10*
%TO.C,D11*%
X236787500Y-65270000D03*
D24*
X236787500Y-72890000D03*
%TD*%
D10*
%TO.C,D10*%
X217737500Y-65270000D03*
D24*
X217737500Y-72890000D03*
%TD*%
D10*
%TO.C,D9*%
X198687500Y-65270000D03*
D24*
X198687500Y-72890000D03*
%TD*%
D10*
%TO.C,D8*%
X179637500Y-65270000D03*
D24*
X179637500Y-72890000D03*
%TD*%
D10*
%TO.C,D7*%
X160587500Y-65270000D03*
D24*
X160587500Y-72890000D03*
%TD*%
D10*
%TO.C,D6*%
X141537500Y-65270000D03*
D24*
X141537500Y-72890000D03*
%TD*%
D10*
%TO.C,D5*%
X122487500Y-65270000D03*
D24*
X122487500Y-72890000D03*
%TD*%
D10*
%TO.C,D4*%
X103437500Y-65270000D03*
D24*
X103437500Y-72890000D03*
%TD*%
D10*
%TO.C,D3*%
X84387500Y-65270000D03*
D24*
X84387500Y-72890000D03*
%TD*%
D10*
%TO.C,D2*%
X65337500Y-65270000D03*
D24*
X65337500Y-72890000D03*
%TD*%
D10*
%TO.C,D1*%
X46287500Y-65270000D03*
D24*
X46287500Y-72890000D03*
%TD*%
D25*
%TO.C,REF\u002A\u002A*%
X217800000Y-25100000D03*
X220800000Y-25100000D03*
%TD*%
D26*
%TO.C,LED1*%
X298850000Y-49250000D03*
X298850000Y-47750000D03*
X293400000Y-47750000D03*
X293400000Y-49250000D03*
%TD*%
%TO.C,LED2*%
X293375000Y-54550000D03*
X293375000Y-53050000D03*
X298825000Y-53050000D03*
X298825000Y-54550000D03*
%TD*%
D24*
%TO.C,D48*%
X89150000Y-130040000D03*
D10*
X89150000Y-122420000D03*
%TD*%
D24*
%TO.C,D46*%
X241550000Y-130040000D03*
D10*
X241550000Y-122420000D03*
%TD*%
D24*
%TO.C,D55*%
X260600000Y-130040000D03*
D10*
X260600000Y-122420000D03*
%TD*%
D24*
%TO.C,D66*%
X293937500Y-149090000D03*
D10*
X293937500Y-141470000D03*
%TD*%
D24*
%TO.C,D31*%
X53431250Y-110990000D03*
D10*
X53431250Y-103370000D03*
%TD*%
D24*
%TO.C,D35*%
X136775000Y-110990000D03*
D10*
X136775000Y-103370000D03*
%TD*%
D24*
%TO.C,D36*%
X155825000Y-110990000D03*
D10*
X155825000Y-103370000D03*
%TD*%
D24*
%TO.C,D61*%
X96293750Y-149090000D03*
D10*
X96293750Y-141470000D03*
%TD*%
D24*
%TO.C,D44*%
X332037500Y-110990000D03*
D10*
X332037500Y-103370000D03*
%TD*%
D24*
%TO.C,D49*%
X108200000Y-130040000D03*
D10*
X108200000Y-122420000D03*
%TD*%
D24*
%TO.C,D41*%
X251075000Y-110990000D03*
D10*
X251075000Y-103370000D03*
%TD*%
D24*
%TO.C,D63*%
X236787500Y-149090000D03*
D10*
X236787500Y-141470000D03*
%TD*%
D24*
%TO.C,D53*%
X184400000Y-130040000D03*
D10*
X184400000Y-122420000D03*
%TD*%
D24*
%TO.C,D64*%
X255837500Y-149090000D03*
D10*
X255837500Y-141470000D03*
%TD*%
D24*
%TO.C,D34*%
X117725000Y-110990000D03*
D10*
X117725000Y-103370000D03*
%TD*%
D24*
%TO.C,D40*%
X232025000Y-110990000D03*
D10*
X232025000Y-103370000D03*
%TD*%
D24*
%TO.C,D37*%
X174875000Y-110990000D03*
D10*
X174875000Y-103370000D03*
%TD*%
D24*
%TO.C,D56*%
X286793750Y-130040000D03*
D10*
X286793750Y-122420000D03*
%TD*%
D24*
%TO.C,D68*%
X332037500Y-149090000D03*
D10*
X332037500Y-141470000D03*
%TD*%
D24*
%TO.C,D65*%
X274887500Y-149090000D03*
D10*
X274887500Y-141470000D03*
%TD*%
D24*
%TO.C,D38*%
X193925000Y-110990000D03*
D10*
X193925000Y-103370000D03*
%TD*%
D24*
%TO.C,D32*%
X79625000Y-110990000D03*
D10*
X79625000Y-103370000D03*
%TD*%
D24*
%TO.C,D62*%
X167731250Y-149090000D03*
D10*
X167731250Y-141470000D03*
%TD*%
D24*
%TO.C,D59*%
X48668750Y-149090000D03*
D10*
X48668750Y-141470000D03*
%TD*%
D24*
%TO.C,D60*%
X72481250Y-149090000D03*
D10*
X72481250Y-141470000D03*
%TD*%
D24*
%TO.C,D39*%
X212975000Y-110990000D03*
D10*
X212975000Y-103370000D03*
%TD*%
D24*
%TO.C,D42*%
X270125000Y-110990000D03*
D10*
X270125000Y-103370000D03*
%TD*%
D24*
%TO.C,D43*%
X301081250Y-110990000D03*
D10*
X301081250Y-103370000D03*
%TD*%
D24*
%TO.C,D45*%
X203450000Y-130040000D03*
D10*
X203450000Y-122420000D03*
%TD*%
D24*
%TO.C,D51*%
X146300000Y-130040000D03*
D10*
X146300000Y-122420000D03*
%TD*%
D24*
%TO.C,D33*%
X98675000Y-110990000D03*
D10*
X98675000Y-103370000D03*
%TD*%
D24*
%TO.C,D58*%
X332037500Y-130040000D03*
D10*
X332037500Y-122420000D03*
%TD*%
D24*
%TO.C,D52*%
X165350000Y-130040000D03*
D10*
X165350000Y-122420000D03*
%TD*%
D24*
%TO.C,D57*%
X312987500Y-130040000D03*
D10*
X312987500Y-122420000D03*
%TD*%
D24*
%TO.C,D67*%
X312987500Y-149090000D03*
D10*
X312987500Y-141470000D03*
%TD*%
D24*
%TO.C,D50*%
X127250000Y-130040000D03*
D10*
X127250000Y-122420000D03*
%TD*%
D24*
%TO.C,D54*%
X222500000Y-130040000D03*
D10*
X222500000Y-122420000D03*
%TD*%
M02*
