ISO-10303-21;
HEADER;
/* Generated by software containing ST-Developer
 * from STEP Tools, Inc. (www.steptools.com) 
 */
/* OPTION: using custom renumber hook */

FILE_DESCRIPTION(
/* description */ ('STEP AP242 Edition 2',
'CAx-IF Rec.Pracs.---Representation and Presentation of Product Manufa
cturing Information (PMI)---4.0---2014-10-13',
'CAx-IF Rec.Pracs.---3D Tessellated Geometry---0.4---2014-09-14','2;1',
'CAx-IF Rec.Pracs.---User Defined Attributes---1.5---2016-08-15'),
/* implementation_level */ '2;1');

FILE_NAME(
/* name */ 'Case Studio - Kai Board Base',
/* time_stamp */ '2026-10-01T06:45:26Z',
/* author */ (''),
/* organization */ (''),
/* preprocessor_version */ 'ST-DEVELOPER v20',
/* originating_system */ 'ONSHAPE BY PTC INC, 1.221',
/* authorisation */ '  ');

FILE_SCHEMA (('AP242_MANAGED_MODEL_BASED_3D_ENGINEERING_MIM_LF { 1 0 10303 442 3 1 4 }'));
ENDSEC;

DATA;
#10=SHAPE_REPRESENTATION_RELATIONSHIP('','',#432,#11);
#11=ADVANCED_BREP_SHAPE_REPRESENTATION('',(#430),#710);
#12=ELLIPSE('',#438,0.00353553390593274,0.0025);
#13=ELLIPSE('',#439,0.00353553390593274,0.0025);
#14=ELLIPSE('',#440,0.00353553390593274,0.0025);
#15=ELLIPSE('',#441,0.00353553390593274,0.0025);
#16=ELLIPSE('',#452,0.00353553390593274,0.0025);
#17=ELLIPSE('',#454,0.00353553390593272,0.0025);
#18=ELLIPSE('',#455,0.00353553390593276,0.0025);
#19=ELLIPSE('',#457,0.00353553390593274,0.0025);
#20=ELLIPSE('',#459,0.00353553390593273,0.0025);
#21=ELLIPSE('',#460,0.00353553390593275,0.0025);
#22=ELLIPSE('',#462,0.00353553390593274,0.0025);
#23=ELLIPSE('',#464,0.00353553390593274,0.0025);
#24=CIRCLE('',#437,0.0025);
#25=CIRCLE('',#442,0.0025);
#26=CYLINDRICAL_SURFACE('',#436,0.0025);
#27=CYLINDRICAL_SURFACE('',#461,0.0025);
#28=CYLINDRICAL_SURFACE('',#463,0.0025);
#29=CYLINDRICAL_SURFACE('',#465,0.0025);
#30=ORIENTED_EDGE('',*,*,#148,.T.);
#31=ORIENTED_EDGE('',*,*,#149,.T.);
#32=ORIENTED_EDGE('',*,*,#150,.F.);
#33=ORIENTED_EDGE('',*,*,#151,.F.);
#34=ORIENTED_EDGE('',*,*,#152,.T.);
#35=ORIENTED_EDGE('',*,*,#153,.T.);
#36=ORIENTED_EDGE('',*,*,#154,.T.);
#37=ORIENTED_EDGE('',*,*,#155,.T.);
#38=ORIENTED_EDGE('',*,*,#156,.F.);
#39=ORIENTED_EDGE('',*,*,#157,.F.);
#40=ORIENTED_EDGE('',*,*,#158,.T.);
#41=ORIENTED_EDGE('',*,*,#159,.T.);
#42=ORIENTED_EDGE('',*,*,#160,.F.);
#43=ORIENTED_EDGE('',*,*,#161,.T.);
#44=ORIENTED_EDGE('',*,*,#162,.T.);
#45=ORIENTED_EDGE('',*,*,#163,.F.);
#46=ORIENTED_EDGE('',*,*,#164,.T.);
#47=ORIENTED_EDGE('',*,*,#165,.T.);
#48=ORIENTED_EDGE('',*,*,#148,.F.);
#49=ORIENTED_EDGE('',*,*,#166,.F.);
#50=ORIENTED_EDGE('',*,*,#167,.F.);
#51=ORIENTED_EDGE('',*,*,#158,.F.);
#52=ORIENTED_EDGE('',*,*,#168,.F.);
#53=ORIENTED_EDGE('',*,*,#169,.F.);
#54=ORIENTED_EDGE('',*,*,#152,.F.);
#55=ORIENTED_EDGE('',*,*,#170,.F.);
#56=ORIENTED_EDGE('',*,*,#171,.T.);
#57=ORIENTED_EDGE('',*,*,#172,.T.);
#58=ORIENTED_EDGE('',*,*,#173,.T.);
#59=ORIENTED_EDGE('',*,*,#174,.F.);
#60=ORIENTED_EDGE('',*,*,#175,.T.);
#61=ORIENTED_EDGE('',*,*,#176,.T.);
#62=ORIENTED_EDGE('',*,*,#177,.T.);
#63=ORIENTED_EDGE('',*,*,#178,.T.);
#64=ORIENTED_EDGE('',*,*,#179,.T.);
#65=ORIENTED_EDGE('',*,*,#180,.T.);
#66=ORIENTED_EDGE('',*,*,#181,.T.);
#67=ORIENTED_EDGE('',*,*,#182,.F.);
#68=ORIENTED_EDGE('',*,*,#182,.T.);
#69=ORIENTED_EDGE('',*,*,#183,.T.);
#70=ORIENTED_EDGE('',*,*,#154,.F.);
#71=ORIENTED_EDGE('',*,*,#184,.T.);
#72=ORIENTED_EDGE('',*,*,#178,.F.);
#73=ORIENTED_EDGE('',*,*,#185,.T.);
#74=ORIENTED_EDGE('',*,*,#174,.T.);
#75=ORIENTED_EDGE('',*,*,#186,.T.);
#76=ORIENTED_EDGE('',*,*,#187,.F.);
#77=ORIENTED_EDGE('',*,*,#188,.F.);
#78=ORIENTED_EDGE('',*,*,#189,.T.);
#79=ORIENTED_EDGE('',*,*,#157,.T.);
#80=ORIENTED_EDGE('',*,*,#190,.T.);
#81=ORIENTED_EDGE('',*,*,#191,.F.);
#82=ORIENTED_EDGE('',*,*,#192,.F.);
#83=ORIENTED_EDGE('',*,*,#188,.T.);
#84=ORIENTED_EDGE('',*,*,#193,.T.);
#85=ORIENTED_EDGE('',*,*,#159,.F.);
#86=ORIENTED_EDGE('',*,*,#194,.F.);
#87=ORIENTED_EDGE('',*,*,#191,.T.);
#88=ORIENTED_EDGE('',*,*,#190,.F.);
#89=ORIENTED_EDGE('',*,*,#187,.T.);
#90=ORIENTED_EDGE('',*,*,#156,.T.);
#91=ORIENTED_EDGE('',*,*,#193,.F.);
#92=ORIENTED_EDGE('',*,*,#181,.F.);
#93=ORIENTED_EDGE('',*,*,#195,.T.);
#94=ORIENTED_EDGE('',*,*,#166,.T.);
#95=ORIENTED_EDGE('',*,*,#155,.F.);
#96=ORIENTED_EDGE('',*,*,#183,.F.);
#97=ORIENTED_EDGE('',*,*,#173,.F.);
#98=ORIENTED_EDGE('',*,*,#196,.T.);
#99=ORIENTED_EDGE('',*,*,#197,.T.);
#100=ORIENTED_EDGE('',*,*,#179,.F.);
#101=ORIENTED_EDGE('',*,*,#186,.F.);
#102=ORIENTED_EDGE('',*,*,#169,.T.);
#103=ORIENTED_EDGE('',*,*,#198,.T.);
#104=ORIENTED_EDGE('',*,*,#175,.F.);
#105=ORIENTED_EDGE('',*,*,#184,.F.);
#106=ORIENTED_EDGE('',*,*,#153,.F.);
#107=ORIENTED_EDGE('',*,*,#199,.T.);
#108=ORIENTED_EDGE('',*,*,#200,.T.);
#109=ORIENTED_EDGE('',*,*,#171,.F.);
#110=ORIENTED_EDGE('',*,*,#185,.F.);
#111=ORIENTED_EDGE('',*,*,#177,.F.);
#112=ORIENTED_EDGE('',*,*,#168,.T.);
#113=ORIENTED_EDGE('',*,*,#189,.F.);
#114=ORIENTED_EDGE('',*,*,#201,.F.);
#115=ORIENTED_EDGE('',*,*,#199,.F.);
#116=ORIENTED_EDGE('',*,*,#176,.F.);
#117=ORIENTED_EDGE('',*,*,#198,.F.);
#118=ORIENTED_EDGE('',*,*,#180,.F.);
#119=ORIENTED_EDGE('',*,*,#197,.F.);
#120=ORIENTED_EDGE('',*,*,#202,.F.);
#121=ORIENTED_EDGE('',*,*,#194,.T.);
#122=ORIENTED_EDGE('',*,*,#167,.T.);
#123=ORIENTED_EDGE('',*,*,#195,.F.);
#124=ORIENTED_EDGE('',*,*,#201,.T.);
#125=ORIENTED_EDGE('',*,*,#192,.T.);
#126=ORIENTED_EDGE('',*,*,#202,.T.);
#127=ORIENTED_EDGE('',*,*,#196,.F.);
#128=ORIENTED_EDGE('',*,*,#172,.F.);
#129=ORIENTED_EDGE('',*,*,#200,.F.);
#130=ORIENTED_EDGE('',*,*,#203,.T.);
#131=ORIENTED_EDGE('',*,*,#149,.F.);
#132=ORIENTED_EDGE('',*,*,#165,.F.);
#133=ORIENTED_EDGE('',*,*,#204,.F.);
#134=ORIENTED_EDGE('',*,*,#161,.F.);
#135=ORIENTED_EDGE('',*,*,#204,.T.);
#136=ORIENTED_EDGE('',*,*,#164,.F.);
#137=ORIENTED_EDGE('',*,*,#205,.F.);
#138=ORIENTED_EDGE('',*,*,#162,.F.);
#139=ORIENTED_EDGE('',*,*,#163,.T.);
#140=ORIENTED_EDGE('',*,*,#205,.T.);
#141=ORIENTED_EDGE('',*,*,#170,.T.);
#142=ORIENTED_EDGE('',*,*,#151,.T.);
#143=ORIENTED_EDGE('',*,*,#206,.F.);
#144=ORIENTED_EDGE('',*,*,#160,.T.);
#145=ORIENTED_EDGE('',*,*,#206,.T.);
#146=ORIENTED_EDGE('',*,*,#150,.T.);
#147=ORIENTED_EDGE('',*,*,#203,.F.);
#148=EDGE_CURVE('',#207,#208,#245,.F.);
#149=EDGE_CURVE('',#208,#209,#246,.T.);
#150=EDGE_CURVE('',#210,#209,#247,.T.);
#151=EDGE_CURVE('',#211,#210,#248,.T.);
#152=EDGE_CURVE('',#211,#212,#249,.F.);
#153=EDGE_CURVE('',#212,#213,#250,.T.);
#154=EDGE_CURVE('',#213,#214,#251,.T.);
#155=EDGE_CURVE('',#214,#207,#252,.T.);
#156=EDGE_CURVE('',#215,#216,#253,.T.);
#157=EDGE_CURVE('',#217,#215,#254,.T.);
#158=EDGE_CURVE('',#217,#218,#255,.T.);
#159=EDGE_CURVE('',#218,#216,#256,.T.);
#160=EDGE_CURVE('',#219,#220,#257,.T.);
#161=EDGE_CURVE('',#219,#221,#258,.T.);
#162=EDGE_CURVE('',#221,#222,#259,.T.);
#163=EDGE_CURVE('',#220,#222,#260,.T.);
#164=EDGE_CURVE('',#223,#224,#261,.T.);
#165=EDGE_CURVE('',#224,#208,#24,.F.);
#166=EDGE_CURVE('',#225,#207,#12,.T.);
#167=EDGE_CURVE('',#218,#225,#13,.T.);
#168=EDGE_CURVE('',#226,#217,#14,.F.);
#169=EDGE_CURVE('',#212,#226,#15,.F.);
#170=EDGE_CURVE('',#223,#211,#25,.F.);
#171=EDGE_CURVE('',#227,#228,#262,.T.);
#172=EDGE_CURVE('',#228,#229,#263,.T.);
#173=EDGE_CURVE('',#229,#230,#264,.T.);
#174=EDGE_CURVE('',#227,#230,#265,.T.);
#175=EDGE_CURVE('',#231,#232,#266,.T.);
#176=EDGE_CURVE('',#232,#233,#267,.F.);
#177=EDGE_CURVE('',#233,#234,#268,.T.);
#178=EDGE_CURVE('',#234,#231,#269,.T.);
#179=EDGE_CURVE('',#235,#236,#270,.T.);
#180=EDGE_CURVE('',#236,#237,#271,.T.);
#181=EDGE_CURVE('',#237,#238,#272,.T.);
#182=EDGE_CURVE('',#235,#238,#273,.T.);
#183=EDGE_CURVE('',#238,#214,#274,.T.);
#184=EDGE_CURVE('',#213,#231,#275,.F.);
#185=EDGE_CURVE('',#234,#227,#276,.T.);
#186=EDGE_CURVE('',#230,#235,#277,.F.);
#187=EDGE_CURVE('',#239,#215,#278,.T.);
#188=EDGE_CURVE('',#240,#239,#279,.T.);
#189=EDGE_CURVE('',#240,#217,#280,.T.);
#190=EDGE_CURVE('',#239,#241,#281,.T.);
#191=EDGE_CURVE('',#242,#241,#282,.T.);
#192=EDGE_CURVE('',#240,#242,#283,.T.);
#193=EDGE_CURVE('',#241,#216,#284,.T.);
#194=EDGE_CURVE('',#242,#218,#285,.T.);
#195=EDGE_CURVE('',#237,#225,#16,.T.);
#196=EDGE_CURVE('',#229,#243,#17,.F.);
#197=EDGE_CURVE('',#243,#236,#18,.F.);
#198=EDGE_CURVE('',#226,#232,#19,.F.);
#199=EDGE_CURVE('',#233,#244,#20,.T.);
#200=EDGE_CURVE('',#244,#228,#21,.T.);
#201=EDGE_CURVE('',#244,#240,#22,.F.);
#202=EDGE_CURVE('',#242,#243,#23,.T.);
#203=EDGE_CURVE('',#219,#209,#286,.T.);
#204=EDGE_CURVE('',#221,#224,#287,.T.);
#205=EDGE_CURVE('',#222,#223,#288,.T.);
#206=EDGE_CURVE('',#220,#210,#289,.T.);
#207=VERTEX_POINT('',#592);
#208=VERTEX_POINT('',#593);
#209=VERTEX_POINT('',#595);
#210=VERTEX_POINT('',#597);
#211=VERTEX_POINT('',#599);
#212=VERTEX_POINT('',#601);
#213=VERTEX_POINT('',#603);
#214=VERTEX_POINT('',#605);
#215=VERTEX_POINT('',#609);
#216=VERTEX_POINT('',#610);
#217=VERTEX_POINT('',#612);
#218=VERTEX_POINT('',#614);
#219=VERTEX_POINT('',#617);
#220=VERTEX_POINT('',#618);
#221=VERTEX_POINT('',#620);
#222=VERTEX_POINT('',#622);
#223=VERTEX_POINT('',#626);
#224=VERTEX_POINT('',#627);
#225=VERTEX_POINT('',#630);
#226=VERTEX_POINT('',#633);
#227=VERTEX_POINT('',#638);
#228=VERTEX_POINT('',#639);
#229=VERTEX_POINT('',#641);
#230=VERTEX_POINT('',#643);
#231=VERTEX_POINT('',#647);
#232=VERTEX_POINT('',#648);
#233=VERTEX_POINT('',#650);
#234=VERTEX_POINT('',#652);
#235=VERTEX_POINT('',#656);
#236=VERTEX_POINT('',#657);
#237=VERTEX_POINT('',#659);
#238=VERTEX_POINT('',#661);
#239=VERTEX_POINT('',#670);
#240=VERTEX_POINT('',#672);
#241=VERTEX_POINT('',#676);
#242=VERTEX_POINT('',#678);
#243=VERTEX_POINT('',#688);
#244=VERTEX_POINT('',#694);
#245=LINE('',#591,#290);
#246=LINE('',#594,#291);
#247=LINE('',#596,#292);
#248=LINE('',#598,#293);
#249=LINE('',#600,#294);
#250=LINE('',#602,#295);
#251=LINE('',#604,#296);
#252=LINE('',#606,#297);
#253=LINE('',#608,#298);
#254=LINE('',#611,#299);
#255=LINE('',#613,#300);
#256=LINE('',#615,#301);
#257=LINE('',#616,#302);
#258=LINE('',#619,#303);
#259=LINE('',#621,#304);
#260=LINE('',#623,#305);
#261=LINE('',#625,#306);
#262=LINE('',#637,#307);
#263=LINE('',#640,#308);
#264=LINE('',#642,#309);
#265=LINE('',#644,#310);
#266=LINE('',#646,#311);
#267=LINE('',#649,#312);
#268=LINE('',#651,#313);
#269=LINE('',#653,#314);
#270=LINE('',#655,#315);
#271=LINE('',#658,#316);
#272=LINE('',#660,#317);
#273=LINE('',#662,#318);
#274=LINE('',#664,#319);
#275=LINE('',#665,#320);
#276=LINE('',#666,#321);
#277=LINE('',#667,#322);
#278=LINE('',#669,#323);
#279=LINE('',#671,#324);
#280=LINE('',#673,#325);
#281=LINE('',#675,#326);
#282=LINE('',#677,#327);
#283=LINE('',#679,#328);
#284=LINE('',#681,#329);
#285=LINE('',#682,#330);
#286=LINE('',#702,#331);
#287=LINE('',#703,#332);
#288=LINE('',#705,#333);
#289=LINE('',#707,#334);
#290=VECTOR('',#474,1.);
#291=VECTOR('',#475,1.);
#292=VECTOR('',#476,1.);
#293=VECTOR('',#477,1.);
#294=VECTOR('',#478,1.);
#295=VECTOR('',#479,1.);
#296=VECTOR('',#480,1.);
#297=VECTOR('',#481,1.);
#298=VECTOR('',#484,1.);
#299=VECTOR('',#485,1.);
#300=VECTOR('',#486,1.);
#301=VECTOR('',#487,1.);
#302=VECTOR('',#488,1.);
#303=VECTOR('',#489,1.);
#304=VECTOR('',#490,1.);
#305=VECTOR('',#491,1.);
#306=VECTOR('',#494,1.);
#307=VECTOR('',#509,1.);
#308=VECTOR('',#510,1.);
#309=VECTOR('',#511,1.);
#310=VECTOR('',#512,1.);
#311=VECTOR('',#515,1.);
#312=VECTOR('',#516,1.);
#313=VECTOR('',#517,1.);
#314=VECTOR('',#518,1.);
#315=VECTOR('',#521,1.);
#316=VECTOR('',#522,1.);
#317=VECTOR('',#523,1.);
#318=VECTOR('',#524,1.);
#319=VECTOR('',#527,1.);
#320=VECTOR('',#528,1.);
#321=VECTOR('',#529,1.);
#322=VECTOR('',#530,1.);
#323=VECTOR('',#533,1.);
#324=VECTOR('',#534,1.);
#325=VECTOR('',#535,1.);
#326=VECTOR('',#538,1.);
#327=VECTOR('',#539,1.);
#328=VECTOR('',#540,1.);
#329=VECTOR('',#543,1.);
#330=VECTOR('',#544,1.);
#331=VECTOR('',#579,1.);
#332=VECTOR('',#580,1.);
#333=VECTOR('',#583,1.);
#334=VECTOR('',#586,1.);
#335=EDGE_LOOP('',(#30,#31,#32,#33,#34,#35,#36,#37));
#336=EDGE_LOOP('',(#38,#39,#40,#41));
#337=EDGE_LOOP('',(#42,#43,#44,#45));
#338=EDGE_LOOP('',(#46,#47,#48,#49,#50,#51,#52,#53,#54,#55));
#339=EDGE_LOOP('',(#56,#57,#58,#59));
#340=EDGE_LOOP('',(#60,#61,#62,#63));
#341=EDGE_LOOP('',(#64,#65,#66,#67));
#342=EDGE_LOOP('',(#68,#69,#70,#71,#72,#73,#74,#75));
#343=EDGE_LOOP('',(#76,#77,#78,#79));
#344=EDGE_LOOP('',(#80,#81,#82,#83));
#345=EDGE_LOOP('',(#84,#85,#86,#87));
#346=EDGE_LOOP('',(#88,#89,#90,#91));
#347=EDGE_LOOP('',(#92,#93,#94,#95,#96));
#348=EDGE_LOOP('',(#97,#98,#99,#100,#101));
#349=EDGE_LOOP('',(#102,#103,#104,#105,#106));
#350=EDGE_LOOP('',(#107,#108,#109,#110,#111));
#351=EDGE_LOOP('',(#112,#113,#114,#115,#116,#117));
#352=EDGE_LOOP('',(#118,#119,#120,#121,#122,#123));
#353=EDGE_LOOP('',(#124,#125,#126,#127,#128,#129));
#354=EDGE_LOOP('',(#130,#131,#132,#133,#134));
#355=EDGE_LOOP('',(#135,#136,#137,#138));
#356=EDGE_LOOP('',(#139,#140,#141,#142,#143));
#357=EDGE_LOOP('',(#144,#145,#146,#147));
#358=FACE_BOUND('',#335,.T.);
#359=FACE_BOUND('',#336,.T.);
#360=FACE_BOUND('',#337,.T.);
#361=FACE_BOUND('',#338,.T.);
#362=FACE_BOUND('',#339,.T.);
#363=FACE_BOUND('',#340,.T.);
#364=FACE_BOUND('',#341,.T.);
#365=FACE_BOUND('',#342,.T.);
#366=FACE_BOUND('',#343,.T.);
#367=FACE_BOUND('',#344,.T.);
#368=FACE_BOUND('',#345,.T.);
#369=FACE_BOUND('',#346,.T.);
#370=FACE_BOUND('',#347,.T.);
#371=FACE_BOUND('',#348,.T.);
#372=FACE_BOUND('',#349,.T.);
#373=FACE_BOUND('',#350,.T.);
#374=FACE_BOUND('',#351,.T.);
#375=FACE_BOUND('',#352,.T.);
#376=FACE_BOUND('',#353,.T.);
#377=FACE_BOUND('',#354,.T.);
#378=FACE_BOUND('',#355,.T.);
#379=FACE_BOUND('',#356,.T.);
#380=FACE_BOUND('',#357,.T.);
#381=PLANE('',#434);
#382=PLANE('',#435);
#383=PLANE('',#443);
#384=PLANE('',#444);
#385=PLANE('',#445);
#386=PLANE('',#446);
#387=PLANE('',#447);
#388=PLANE('',#448);
#389=PLANE('',#449);
#390=PLANE('',#450);
#391=PLANE('',#451);
#392=PLANE('',#453);
#393=PLANE('',#456);
#394=PLANE('',#458);
#395=PLANE('',#466);
#396=PLANE('',#467);
#397=PLANE('',#468);
#398=PLANE('',#469);
#399=ADVANCED_FACE('',(#358),#381,.T.);
#400=ADVANCED_FACE('',(#359,#360),#382,.T.);
#401=ADVANCED_FACE('',(#361),#26,.T.);
#402=ADVANCED_FACE('',(#362),#383,.F.);
#403=ADVANCED_FACE('',(#363),#384,.T.);
#404=ADVANCED_FACE('',(#364),#385,.F.);
#405=ADVANCED_FACE('',(#365),#386,.F.);
#406=ADVANCED_FACE('',(#366),#387,.T.);
#407=ADVANCED_FACE('',(#367),#388,.F.);
#408=ADVANCED_FACE('',(#368),#389,.F.);
#409=ADVANCED_FACE('',(#369),#390,.T.);
#410=ADVANCED_FACE('',(#370),#391,.T.);
#411=ADVANCED_FACE('',(#371),#392,.F.);
#412=ADVANCED_FACE('',(#372),#393,.F.);
#413=ADVANCED_FACE('',(#373),#394,.T.);
#414=ADVANCED_FACE('',(#374),#27,.T.);
#415=ADVANCED_FACE('',(#375),#28,.T.);
#416=ADVANCED_FACE('',(#376),#29,.T.);
#417=ADVANCED_FACE('',(#377),#395,.T.);
#418=ADVANCED_FACE('',(#378),#396,.T.);
#419=ADVANCED_FACE('',(#379),#397,.F.);
#420=ADVANCED_FACE('',(#380),#398,.F.);
#421=CLOSED_SHELL('',(#399,#400,#401,#402,#403,#404,#405,#406,#407,#408,
#409,#410,#411,#412,#413,#414,#415,#416,#417,#418,#419,#420));
#422=STYLED_ITEM('',(#423),#430);
#423=PRESENTATION_STYLE_ASSIGNMENT((#424));
#424=SURFACE_STYLE_USAGE(.BOTH.,#425);
#425=SURFACE_SIDE_STYLE('',(#426));
#426=SURFACE_STYLE_FILL_AREA(#427);
#427=FILL_AREA_STYLE('',(#428));
#428=FILL_AREA_STYLE_COLOUR('',#429);
#429=COLOUR_RGB('',0.0509803921568627,0.0509803921568627,0.0509803921568627);
#430=MANIFOLD_SOLID_BREP('Kai Board Base',#421);
#431=SHAPE_DEFINITION_REPRESENTATION(#715,#432);
#432=SHAPE_REPRESENTATION('Kai Board Base',(#433),#710);
#433=AXIS2_PLACEMENT_3D('',#589,#470,#471);
#434=AXIS2_PLACEMENT_3D('',#590,#472,#473);
#435=AXIS2_PLACEMENT_3D('',#607,#482,#483);
#436=AXIS2_PLACEMENT_3D('',#624,#492,#493);
#437=AXIS2_PLACEMENT_3D('',#628,#495,#496);
#438=AXIS2_PLACEMENT_3D('',#629,#497,#498);
#439=AXIS2_PLACEMENT_3D('',#631,#499,#500);
#440=AXIS2_PLACEMENT_3D('',#632,#501,#502);
#441=AXIS2_PLACEMENT_3D('',#634,#503,#504);
#442=AXIS2_PLACEMENT_3D('',#635,#505,#506);
#443=AXIS2_PLACEMENT_3D('',#636,#507,#508);
#444=AXIS2_PLACEMENT_3D('',#645,#513,#514);
#445=AXIS2_PLACEMENT_3D('',#654,#519,#520);
#446=AXIS2_PLACEMENT_3D('',#663,#525,#526);
#447=AXIS2_PLACEMENT_3D('',#668,#531,#532);
#448=AXIS2_PLACEMENT_3D('',#674,#536,#537);
#449=AXIS2_PLACEMENT_3D('',#680,#541,#542);
#450=AXIS2_PLACEMENT_3D('',#683,#545,#546);
#451=AXIS2_PLACEMENT_3D('',#684,#547,#548);
#452=AXIS2_PLACEMENT_3D('',#685,#549,#550);
#453=AXIS2_PLACEMENT_3D('',#686,#551,#552);
#454=AXIS2_PLACEMENT_3D('',#687,#553,#554);
#455=AXIS2_PLACEMENT_3D('',#689,#555,#556);
#456=AXIS2_PLACEMENT_3D('',#690,#557,#558);
#457=AXIS2_PLACEMENT_3D('',#691,#559,#560);
#458=AXIS2_PLACEMENT_3D('',#692,#561,#562);
#459=AXIS2_PLACEMENT_3D('',#693,#563,#564);
#460=AXIS2_PLACEMENT_3D('',#695,#565,#566);
#461=AXIS2_PLACEMENT_3D('',#696,#567,#568);
#462=AXIS2_PLACEMENT_3D('',#697,#569,#570);
#463=AXIS2_PLACEMENT_3D('',#698,#571,#572);
#464=AXIS2_PLACEMENT_3D('',#699,#573,#574);
#465=AXIS2_PLACEMENT_3D('',#700,#575,#576);
#466=AXIS2_PLACEMENT_3D('',#701,#577,#578);
#467=AXIS2_PLACEMENT_3D('',#704,#581,#582);
#468=AXIS2_PLACEMENT_3D('',#706,#584,#585);
#469=AXIS2_PLACEMENT_3D('',#708,#587,#588);
#470=DIRECTION('',(0.,0.,1.));
#471=DIRECTION('',(1.,0.,0.));
#472=DIRECTION('',(1.,0.,0.));
#473=DIRECTION('',(0.,-1.,0.));
#474=DIRECTION('',(0.,0.,-1.));
#475=DIRECTION('',(0.,-1.,0.));
#476=DIRECTION('',(0.,0.,-1.));
#477=DIRECTION('',(0.,-1.,0.));
#478=DIRECTION('',(0.,0.,-1.));
#479=DIRECTION('',(0.,-1.,0.));
#480=DIRECTION('',(0.,0.,-1.));
#481=DIRECTION('',(0.,1.,0.));
#482=DIRECTION('',(-1.,0.,0.));
#483=DIRECTION('',(0.,1.,0.));
#484=DIRECTION('',(0.,0.,-1.));
#485=DIRECTION('',(0.,-1.,0.));
#486=DIRECTION('',(0.,0.,-1.));
#487=DIRECTION('',(0.,-1.,0.));
#488=DIRECTION('',(0.,0.,1.));
#489=DIRECTION('',(0.,1.,0.));
#490=DIRECTION('',(0.,0.,1.));
#491=DIRECTION('',(0.,1.,0.));
#492=DIRECTION('',(0.,0.,-1.));
#493=DIRECTION('',(0.,1.,0.));
#494=DIRECTION('',(0.,0.,-1.));
#495=DIRECTION('',(0.,0.,1.));
#496=DIRECTION('',(0.,-1.,0.));
#497=DIRECTION('',(0.707106781186548,0.,-0.707106781186547));
#498=DIRECTION('',(-0.707106781186547,0.,-0.707106781186548));
#499=DIRECTION('',(-0.707106781186548,0.,-0.707106781186548));
#500=DIRECTION('',(-0.707106781186548,0.,0.707106781186548));
#501=DIRECTION('',(0.707106781186548,0.,-0.707106781186548));
#502=DIRECTION('',(-0.707106781186548,0.,-0.707106781186548));
#503=DIRECTION('',(-0.707106781186548,0.,-0.707106781186548));
#504=DIRECTION('',(0.707106781186548,0.,-0.707106781186548));
#505=DIRECTION('',(0.,0.,1.));
#506=DIRECTION('',(0.,-1.,0.));
#507=DIRECTION('',(1.,0.,-1.93514969431675E-16));
#508=DIRECTION('',(-1.93514969431675E-16,0.,-1.));
#509=DIRECTION('',(0.,1.,0.));
#510=DIRECTION('',(-1.93514969431675E-16,0.,-1.));
#511=DIRECTION('',(0.,-1.,0.));
#512=DIRECTION('',(-1.93514969431675E-16,0.,-1.));
#513=DIRECTION('',(0.,0.,1.));
#514=DIRECTION('',(0.,-1.,0.));
#515=DIRECTION('',(0.,1.,0.));
#516=DIRECTION('',(1.,0.,0.));
#517=DIRECTION('',(0.,-1.,0.));
#518=DIRECTION('',(1.,0.,0.));
#519=DIRECTION('',(0.,0.,1.));
#520=DIRECTION('',(0.,-1.,0.));
#521=DIRECTION('',(0.,1.,0.));
#522=DIRECTION('',(1.,0.,0.));
#523=DIRECTION('',(0.,-1.,0.));
#524=DIRECTION('',(1.,0.,0.));
#525=DIRECTION('',(0.,1.,0.));
#526=DIRECTION('',(1.,0.,0.));
#527=DIRECTION('',(0.707106781186547,0.,0.707106781186548));
#528=DIRECTION('',(0.707106781186548,0.,-0.707106781186548));
#529=DIRECTION('',(-0.707106781186546,0.,-0.70710678118655));
#530=DIRECTION('',(-0.707106781186551,0.,0.707106781186544));
#531=DIRECTION('',(0.,0.,-1.));
#532=DIRECTION('',(0.,1.,0.));
#533=DIRECTION('',(1.,0.,0.));
#534=DIRECTION('',(0.,-1.,0.));
#535=DIRECTION('',(1.,0.,0.));
#536=DIRECTION('',(-1.,0.,0.));
#537=DIRECTION('',(0.,1.,0.));
#538=DIRECTION('',(0.,0.,-1.));
#539=DIRECTION('',(0.,-1.,0.));
#540=DIRECTION('',(0.,0.,-1.));
#541=DIRECTION('',(-4.39170500247293E-17,0.,-1.));
#542=DIRECTION('',(-1.,0.,4.39170500247293E-17));
#543=DIRECTION('',(1.,0.,-4.39170500247293E-17));
#544=DIRECTION('',(1.,0.,-4.39170500247293E-17));
#545=DIRECTION('',(0.,1.,0.));
#546=DIRECTION('',(1.,0.,0.));
#547=DIRECTION('',(0.707106781186548,0.,-0.707106781186547));
#548=DIRECTION('',(0.,-1.,0.));
#549=DIRECTION('',(0.707106781186548,0.,-0.707106781186547));
#550=DIRECTION('',(-0.707106781186547,0.,-0.707106781186548));
#551=DIRECTION('',(0.707106781186544,0.,0.707106781186551));
#552=DIRECTION('',(0.,1.,0.));
#553=DIRECTION('',(0.707106781186544,0.,0.707106781186551));
#554=DIRECTION('',(-0.707106781186551,0.,0.707106781186544));
#555=DIRECTION('',(0.707106781186544,0.,0.707106781186551));
#556=DIRECTION('',(-0.707106781186551,0.,0.707106781186544));
#557=DIRECTION('',(-0.707106781186548,0.,-0.707106781186548));
#558=DIRECTION('',(0.,1.,0.));
#559=DIRECTION('',(-0.707106781186548,0.,-0.707106781186548));
#560=DIRECTION('',(0.707106781186548,0.,-0.707106781186548));
#561=DIRECTION('',(-0.70710678118655,0.,0.707106781186546));
#562=DIRECTION('',(0.,-1.,0.));
#563=DIRECTION('',(-0.70710678118655,0.,0.707106781186546));
#564=DIRECTION('',(0.707106781186546,0.,0.70710678118655));
#565=DIRECTION('',(-0.70710678118655,0.,0.707106781186546));
#566=DIRECTION('',(0.707106781186546,0.,0.70710678118655));
#567=DIRECTION('',(1.,0.,0.));
#568=DIRECTION('',(0.,-1.,0.));
#569=DIRECTION('',(0.707106781186548,0.,0.707106781186548));
#570=DIRECTION('',(0.707106781186548,0.,-0.707106781186548));
#571=DIRECTION('',(-1.,0.,0.));
#572=DIRECTION('',(0.,1.,0.));
#573=DIRECTION('',(-0.707106781186548,0.,0.707106781186548));
#574=DIRECTION('',(0.707106781186548,0.,0.707106781186548));
#575=DIRECTION('',(1.93514969431675E-16,0.,1.));
#576=DIRECTION('',(1.,0.,-1.93514969431675E-16));
#577=DIRECTION('',(0.,0.,1.));
#578=DIRECTION('',(0.,-1.,0.));
#579=DIRECTION('',(1.,0.,0.));
#580=DIRECTION('',(1.,0.,0.));
#581=DIRECTION('',(0.,-1.,0.));
#582=DIRECTION('',(-1.,0.,0.));
#583=DIRECTION('',(1.,0.,0.));
#584=DIRECTION('',(0.,0.,1.));
#585=DIRECTION('',(0.,-1.,0.));
#586=DIRECTION('',(1.,0.,0.));
#587=DIRECTION('',(0.,-1.,0.));
#588=DIRECTION('',(-1.,0.,0.));
#589=CARTESIAN_POINT('',(0.,0.,0.));
#590=CARTESIAN_POINT('',(0.3425,-0.0035,0.09525));
#591=CARTESIAN_POINT('',(0.3425,0.0075,0.09525));
#592=CARTESIAN_POINT('',(0.3425,0.0075,0.0355));
#593=CARTESIAN_POINT('',(0.3425,0.0075,0.0381775478423536));
#594=CARTESIAN_POINT('',(0.3425,0.00656374590471387,0.0381775478423536));
#595=CARTESIAN_POINT('',(0.3425,0.00406374590471387,0.0381775478423536));
#596=CARTESIAN_POINT('',(0.3425,0.00406374590471387,0.0481775478423536));
#597=CARTESIAN_POINT('',(0.3425,0.00406374590471387,0.0581775478423536));
#598=CARTESIAN_POINT('',(0.3425,0.00656374590471387,0.0581775478423536));
#599=CARTESIAN_POINT('',(0.3425,0.0075,0.0581775478423536));
#600=CARTESIAN_POINT('',(0.3425,0.0075,0.09525));
#601=CARTESIAN_POINT('',(0.3425,0.0075,0.155));
#602=CARTESIAN_POINT('',(0.3425,-0.0035,0.155));
#603=CARTESIAN_POINT('',(0.3425,-0.0035,0.155));
#604=CARTESIAN_POINT('',(0.3425,-0.0035,0.09525));
#605=CARTESIAN_POINT('',(0.3425,-0.0035,0.0355));
#606=CARTESIAN_POINT('',(0.3425,0.01,0.0355));
#607=CARTESIAN_POINT('',(0.34,0.01,0.09525));
#608=CARTESIAN_POINT('',(0.34,0.,0.09525));
#609=CARTESIAN_POINT('',(0.34,0.,0.1555));
#610=CARTESIAN_POINT('',(0.34,0.,0.035));
#611=CARTESIAN_POINT('',(0.34,0.01,0.1555));
#612=CARTESIAN_POINT('',(0.34,0.01,0.1555));
#613=CARTESIAN_POINT('',(0.34,0.01,0.09525));
#614=CARTESIAN_POINT('',(0.34,0.01,0.035));
#615=CARTESIAN_POINT('',(0.34,0.01,0.035));
#616=CARTESIAN_POINT('',(0.34,0.00406374590471387,0.09525));
#617=CARTESIAN_POINT('',(0.34,0.00406374590471387,0.0381775478423536));
#618=CARTESIAN_POINT('',(0.34,0.00406374590471387,0.0581775478423536));
#619=CARTESIAN_POINT('',(0.34,0.01,0.0381775478423536));
#620=CARTESIAN_POINT('',(0.34,0.00906374590471387,0.0381775478423536));
#621=CARTESIAN_POINT('',(0.34,0.00906374590471387,0.09525));
#622=CARTESIAN_POINT('',(0.34,0.00906374590471387,0.0581775478423536));
#623=CARTESIAN_POINT('',(0.34,0.01,0.0581775478423536));
#624=CARTESIAN_POINT('',(0.34,0.0075,0.09525));
#625=CARTESIAN_POINT('',(0.341950563699419,0.00906374590471387,0.09525));
#626=CARTESIAN_POINT('',(0.341950563699419,0.00906374590471387,0.0581775478423536));
#627=CARTESIAN_POINT('',(0.341950563699419,0.00906374590471387,0.0381775478423536));
#628=CARTESIAN_POINT('',(0.34,0.0075,0.0381775478423536));
#629=CARTESIAN_POINT('',(0.34,0.0075,0.033));
#630=CARTESIAN_POINT('',(0.341,0.00979128784747791,0.034));
#631=CARTESIAN_POINT('',(0.34,0.0075,0.035));
#632=CARTESIAN_POINT('',(0.34,0.0075,0.1555));
#633=CARTESIAN_POINT('',(0.341,0.00979128784747791,0.1565));
#634=CARTESIAN_POINT('',(0.34,0.0075,0.1575));
#635=CARTESIAN_POINT('',(0.34,0.0075,0.0581775478423536));
#636=CARTESIAN_POINT('',(0.0215,-0.0035,0.09525));
#637=CARTESIAN_POINT('',(0.0215,0.01,0.155));
#638=CARTESIAN_POINT('',(0.0215,-0.0035,0.155));
#639=CARTESIAN_POINT('',(0.0215,0.0075,0.155));
#640=CARTESIAN_POINT('',(0.0215,0.0075,0.0355));
#641=CARTESIAN_POINT('',(0.0215,0.0075,0.0355));
#642=CARTESIAN_POINT('',(0.0215,-0.0035,0.0355));
#643=CARTESIAN_POINT('',(0.0215,-0.0035,0.0355));
#644=CARTESIAN_POINT('',(0.0215,-0.0035,0.09525));
#645=CARTESIAN_POINT('',(0.182,-0.0035,0.158));
#646=CARTESIAN_POINT('',(0.3395,-0.0035,0.158));
#647=CARTESIAN_POINT('',(0.3395,-0.0035,0.158));
#648=CARTESIAN_POINT('',(0.3395,0.0075,0.158));
#649=CARTESIAN_POINT('',(0.182,0.0075,0.158));
#650=CARTESIAN_POINT('',(0.0245,0.0075,0.158));
#651=CARTESIAN_POINT('',(0.0245,-0.0035,0.158));
#652=CARTESIAN_POINT('',(0.0245,-0.0035,0.158));
#653=CARTESIAN_POINT('',(0.182,-0.0035,0.158));
#654=CARTESIAN_POINT('',(0.182,-0.0035,0.0325));
#655=CARTESIAN_POINT('',(0.0245,-0.0035,0.0325));
#656=CARTESIAN_POINT('',(0.0245,-0.0035,0.0325));
#657=CARTESIAN_POINT('',(0.0245,0.0075,0.0325));
#658=CARTESIAN_POINT('',(0.3395,0.0075,0.0325));
#659=CARTESIAN_POINT('',(0.3395,0.0075,0.0325));
#660=CARTESIAN_POINT('',(0.3395,-0.0035,0.0325));
#661=CARTESIAN_POINT('',(0.3395,-0.0035,0.0325));
#662=CARTESIAN_POINT('',(0.182,-0.0035,0.0325));
#663=CARTESIAN_POINT('',(0.182,-0.0035,0.09525));
#664=CARTESIAN_POINT('',(0.3425,-0.0035,0.0355));
#665=CARTESIAN_POINT('',(0.3395,-0.0035,0.158));
#666=CARTESIAN_POINT('',(0.0215,-0.0035,0.155));
#667=CARTESIAN_POINT('',(0.0245,-0.0035,0.0325));
#668=CARTESIAN_POINT('',(0.182,0.01,0.1555));
#669=CARTESIAN_POINT('',(0.182,0.,0.1555));
#670=CARTESIAN_POINT('',(0.024,0.,0.1555));
#671=CARTESIAN_POINT('',(0.024,0.01,0.1555));
#672=CARTESIAN_POINT('',(0.024,0.01,0.1555));
#673=CARTESIAN_POINT('',(0.182,0.01,0.1555));
#674=CARTESIAN_POINT('',(0.024,0.01,0.09525));
#675=CARTESIAN_POINT('',(0.024,0.,0.09525));
#676=CARTESIAN_POINT('',(0.024,0.,0.035));
#677=CARTESIAN_POINT('',(0.024,0.01,0.035));
#678=CARTESIAN_POINT('',(0.024,0.01,0.035));
#679=CARTESIAN_POINT('',(0.024,0.01,0.09525));
#680=CARTESIAN_POINT('',(0.182,0.01,0.035));
#681=CARTESIAN_POINT('',(0.182,0.,0.035));
#682=CARTESIAN_POINT('',(0.182,0.01,0.035));
#683=CARTESIAN_POINT('',(0.182,0.,0.09525));
#684=CARTESIAN_POINT('',(0.3425,-0.0035,0.0355));
#685=CARTESIAN_POINT('',(0.342,0.0075,0.035));
#686=CARTESIAN_POINT('',(0.0245,-0.0035,0.0325));
#687=CARTESIAN_POINT('',(0.024,0.0075,0.033));
#688=CARTESIAN_POINT('',(0.023,0.00979128784747792,0.034));
#689=CARTESIAN_POINT('',(0.022,0.0075,0.035));
#690=CARTESIAN_POINT('',(0.3395,-0.0035,0.158));
#691=CARTESIAN_POINT('',(0.342,0.0075,0.1555));
#692=CARTESIAN_POINT('',(0.0215,-0.0035,0.155));
#693=CARTESIAN_POINT('',(0.022,0.0075,0.1555));
#694=CARTESIAN_POINT('',(0.023,0.00979128784747792,0.1565));
#695=CARTESIAN_POINT('',(0.024,0.0075,0.1575));
#696=CARTESIAN_POINT('',(0.182,0.0075,0.1555));
#697=CARTESIAN_POINT('',(0.024,0.0075,0.1555));
#698=CARTESIAN_POINT('',(0.182,0.0075,0.035));
#699=CARTESIAN_POINT('',(0.024,0.0075,0.035));
#700=CARTESIAN_POINT('',(0.024,0.0075,0.09525));
#701=CARTESIAN_POINT('',(0.3325,0.00656374590471387,0.0381775478423536));
#702=CARTESIAN_POINT('',(0.3325,0.00406374590471387,0.0381775478423536));
#703=CARTESIAN_POINT('',(0.3325,0.00906374590471387,0.0381775478423536));
#704=CARTESIAN_POINT('',(0.3325,0.00906374590471387,0.0481775478423536));
#705=CARTESIAN_POINT('',(0.3325,0.00906374590471387,0.0581775478423536));
#706=CARTESIAN_POINT('',(0.3325,0.00656374590471387,0.0581775478423536));
#707=CARTESIAN_POINT('',(0.3325,0.00406374590471387,0.0581775478423536));
#708=CARTESIAN_POINT('',(0.3325,0.00406374590471387,0.0481775478423536));
#709=MECHANICAL_DESIGN_GEOMETRIC_PRESENTATION_REPRESENTATION('',(#422),
#710);
#710=(
GEOMETRIC_REPRESENTATION_CONTEXT(3)
GLOBAL_UNCERTAINTY_ASSIGNED_CONTEXT((#711))
GLOBAL_UNIT_ASSIGNED_CONTEXT((#714,#713,#712))
REPRESENTATION_CONTEXT('Kai Board Base','TOP_LEVEL_ASSEMBLY_PART')
);
#711=UNCERTAINTY_MEASURE_WITH_UNIT(LENGTH_MEASURE(1.E-8),#714,
'DISTANCE_ACCURACY_VALUE','Maximum Tolerance applied to model');
#712=(
NAMED_UNIT(*)
SI_UNIT($,.STERADIAN.)
SOLID_ANGLE_UNIT()
);
#713=(
NAMED_UNIT(*)
PLANE_ANGLE_UNIT()
SI_UNIT($,.RADIAN.)
);
#714=(
LENGTH_UNIT()
NAMED_UNIT(*)
SI_UNIT($,.METRE.)
);
#715=PRODUCT_DEFINITION_SHAPE('','',#716);
#716=PRODUCT_DEFINITION('','',#718,#717);
#717=PRODUCT_DEFINITION_CONTEXT('',#724,'design');
#718=PRODUCT_DEFINITION_FORMATION_WITH_SPECIFIED_SOURCE('','',#720,
 .NOT_KNOWN.);
#719=PRODUCT_RELATED_PRODUCT_CATEGORY('','',(#720));
#720=PRODUCT('Kai Board Base','Kai Board Base','Kai Board Base',(#722));
#721=PRODUCT_CATEGORY('','');
#722=PRODUCT_CONTEXT('',#724,'mechanical');
#723=APPLICATION_PROTOCOL_DEFINITION('international standard',
'ap242_managed_model_based_3d_engineering',2020,#724);
#724=APPLICATION_CONTEXT('managed model based 3d engineering');
ENDSEC;
END-ISO-10303-21;
